<svg xmlns="http://www.w3.org/2000/svg" viewBox="0 0 53.34 81.82"><g data-name="Layer 2"><g data-name="Layer 1" fill-rule="evenodd"><path d="M3.68 30.4l46-2.55c1.53-.08 3.09 1.29 2.79 2.79A114.85 114.85 0 0053.29 79c.34 1.5-1.25 2.79-2.79 2.79H2.29a2.58 2.58 0 01-2.2-3.28c3.66-12.72 4.62-27.06 1.22-45.4a2.31 2.31 0 012.37-2.71z" fill="#268acb"/><path d="M14.86 37.09a2 2 0 11-2 2 2 2 0 012-2zM35.69 46a1.94 1.94 0 113.88 0v.14a13.45 13.45 0 11-26.89 0v-.06a1.95 1.95 0 113.89 0v.06a9.55 9.55 0 0019.09 0V46zm1.71-8.93a2 2 0 11-2 2 2 2 0 012-2z" fill="#fff"/><path d="M22.57 27.31L20.48 9.75l1-1a1.17 1.17 0 00.12.25c.69-.35 2.49-1.37 3.75-2.08a2.25 2.25 0 003.37-.08l4.36 1 1.2.76S36 23.15 36.44 27.13l-13.76.76-.11-.58zm1.64-23.73l-1.5-2.53a1.71 1.71 0 011-.13c.37.16.8.39 1 .28s1-1 1.39-1.08a1.8 1.8 0 01.5-.12 5.23 5.23 0 011.34.59c.26.26.4.39.66.28a10.57 10.57 0 011.31-.75 3.42 3.42 0 01.48 0l-.8 3.1-1 .56A2.26 2.26 0 0027 3.1a2.3 2.3 0 00-1.67.72l-1.12-.24z" fill="#8fc43f"/><path d="M20.86 2.86c-.2.44-.08 5 .74 6.13.69-.35 2.49-1.37 3.75-2.08a2.25 2.25 0 003.37-.08l4.41 1c.2-.44.08-5-.73-6.14-.71.36-2.55 1.4-3.8 2.11a2.26 2.26 0 00-1.6-.7 2.3 2.3 0 00-1.67.72l-4.47-1z" fill="#1eac4b"/><path d="M31.81 13.52l6.12 1.38h.21-.21l-2.75 12.3-7.85.44 3-13.15a1.28 1.28 0 011.53-1zm13.91 3.12l5.66 1.27a1.28 1.28 0 011 1.53l-1.55 6.9-7.83.43 2.26-10.09h.5z" fill="#df3286"/><path d="M37.93 14.9h.21c-1-.77-3.72-2.55-3.07-4 .81-1.83 2.86-1.67 4-.53A7.26 7.26 0 0141 14.62a2 2 0 011.33 0l.68.33s2.88-3.67 4.82-2.94 2.49 2.26 1.93 2.92a6.94 6.94 0 01-4.59 1.69L43 26.77l-7.78.43 2.75-12.3zm1.62-.76s-.64-2.48-1.51-2.91-1.41-.26-1.66.25 1.43 1.67 3.17 2.66zm8.45-.56s.62.51.39.89-2.4.83-2.87.84-1 0-1 0a17 17 0 012.05-1.63 1.26 1.26 0 011.43-.1zM2.22 20.92l7.31-1.77h.25-.25l2.26 9.35-9.2.5-1.5-6.23a1.54 1.54 0 011.13-1.85zm16.61-4l6.75-1.63a1.53 1.53 0 011.85 1.13l2.68 11.07-9.2.51-2.6-10.77.52-.31z" fill="#ef9720"/><path d="M9.53 19.15h.25c-1.53-.29-5.35-.77-5.44-2.71-.1-2.4 2.2-3.31 4.08-2.72a8.69 8.69 0 014.32 3.56 2.52 2.52 0 011.46-.66h.91s1.15-5.47 3.62-5.72S22.6 12 22.35 13a8.31 8.31 0 01-4 4.24L20.91 28l-9.12.51-2.26-9.36zm1.34-1.66s-2-2.34-3.17-2.34-1.65.48-1.65 1.15 2.42 1.05 4.82 1.19zm8.82-5.09s.94.21.89.75-2.15 2.16-2.58 2.42-1.1.53-1.1.53a19.37 19.37 0 011.34-2.84c.56-.82 1.12-.93 1.5-.86z" fill="#e41f29"/></g></g></svg>