<svg width="253" height="117" fill="none" xmlns="http://www.w3.org/2000/svg"><mask id="a" maskUnits="userSpaceOnUse" x="0" y="0" width="253" height="117"><path fill="#1A1A1A" d="M0 0h253v117H0z"/></mask><g mask="url(#a)"><path d="M470.14 265.015h-504v-288h504v288z" fill="url(#paint0_linear)"/><path d="M83.3 173.485c-10.84 11.2-27.09 13.16-42.83.91-13.57-10.56-21.11-22.85-42.83-23-83-.64-77.39-55.25-57.52-87.43 28.52-46.2 18.26-62 17.42-93.3-.58-21.87.95-39.67 16.75-57.55 23.67-26.78 58.57-24.2 81.71-4.9 11.35 9.48 22.34 21.61 29.51 28.52 19.26 18.53 28.92 22.08 59.36 37.52 58.77 31.06 56.3 86.32 7.14 106.31-42.1 17.12-45.15 17.85-52.56 51.83-3.12 14.26-3.74 28.28-16.15 41.09z" fill="url(#paint1_linear)"/><path d="M394.69 106.845c27.84-56.69 93.43-21.91 88.35 44.26-2.12 27.48-9.62 47.71 8.64 71.4 4.52 5.88 8.45 12.21 12.66 18.33 7.78 11.32 7.85 32-4.19 46.94-17.42 21.67-39.35 39.54-62.1 55.54-29.75 20.94-64.74 27.07-84.55-4.76-11.55-18.54-13.36-37.38-34.85-43.32-12.56-3.46-21.19-6.11-29.92-17.27-15.59-19.95-14.46-12.59-27.92-20.19-32.34-18.27-22-62.79 10.71-81.5 21.81-12.46 44.94-7.44 58-7 47.26 1.52 42.62-16.43 65.17-62.43z" fill="url(#paint2_linear)"/><path d="M121.56 386.225c-5.22-27.58 11.43-54.21 34.44-68 26-15.63 48.46-22 53.89-52.51 1.75-9.88 4.64-23.82 9.18-32.84 16.68-33.17 55.42-23.31 84.51-22.61 27.3.65 45.09-14.85 72.6-37.17.17-.14 57.69-73.34 84.11-.75 4.89 13.46 6.07 24.49 8.16 31.87 8.25 29 34.73 28 74.84 45.11 50.75 21.59 67.14 80.69 12.7 100.53-20.93 7.61-39 8.69-59.1 18.53-41 20.11-36.82 61.41-72.41 79.21-12.75 7.93-31.91 9.74-44.94 7.65-50.19-8-69.7-27.87-106-17-12.33 3.69-27.69 10.75-46.06 13.6-47.34 7.36-97.71-22.25-105.92-65.62zm-222.24-366.21c-5.22-27.57 11.43-54.21 34.44-68 26-15.63 48.47-22 53.89-52.52 1.76-9.88 4.65-23.82 9.18-32.84 16.69-33.22 55.43-23.36 84.51-22.64 27.3.65 45.09-14.84 72.6-37.17.17-.14 57.69-73.34 84.11-.74 4.9 13.45 6.07 24.49 8.17 31.86 8.24 29 34.72 28 74.83 45.11 50.76 21.62 67.14 80.78 12.7 100.57-20.92 7.61-39 8.69-59.09 18.53-41 20.11-36.83 61.4-72.42 79.2-12.74 7.93-31.9 9.74-44.94 7.66-50.18-8-69.7-27.88-106-17-12.33 3.69-27.7 10.75-46.06 13.6-47.3 7.33-97.7-22.28-105.92-65.62z" fill="#636363"/><path d="M507.14 35.845h-.46a65.416 65.416 0 00-59.06 41 133.867 133.867 0 00-4.05 13.38c-2.37 8.93-4.81 18.16-10.79 25.21-4.4 5.2-10.4 8.8-16.2 12.28-5.13 3.09-10.45 6.28-14.7 10.59-8.63 8.74-12.1 21.08-15.47 33-3.49 12.39-7.1 25.2-16.51 33.76-14.39 13.18-36.76 11.44-54.71 8.45l-2.09-.35c-18.82-3.16-38.28-6.42-54.46 2.74a40.45 40.45 0 00-20 34.71 40.43 40.43 0 0020.72 34.27l.24-.44a40 40 0 01-20.46-33.84 40.005 40.005 0 0119.74-34.27c16-9.07 35.4-5.82 54.13-2.68l2.13.36c18 3 40.57 4.76 55.16-8.51 9.52-8.65 13.15-21.54 16.66-34 3.34-11.87 6.8-24.15 15.34-32.8 4.21-4.26 9.49-7.44 14.6-10.51 5.83-3.5 11.87-7.12 16.32-12.38 6.05-7.15 8.51-16.43 10.89-25.41a136.638 136.638 0 014.03-13.39c9.07-23.76 33.17-40.51 58.61-40.72 12.38-.11 23 4 29.13 11.2l.38-.32c-6.2-7.16-16.77-11.33-29.12-11.33zm-339.25-76.67c-11 4.06-13.41 18-13.94 23.88-.23 2.44-.34 5-.45 7.4-.32 7.13-.66 14.5-3.8 20.91-5.95 12.15-20.29 17.17-28.3 19.09-4.81 1.14-9.79 1.9-14.61 2.63-6.71 1-13.65 2.08-20.22 4.2a65 65 0 00-40.62 39.73c-1.16 3.32-2.07 6.83-3 10.22-2 7.79-4.12 15.84-9.28 22-9.46 11.36-25.65 13.12-41.42 14-8.21.43-16.69.88-24.82-1.08-9-2.16-16.17-7.24-19.57-13.93l-.44.23c3.47 6.82 10.72 12 19.89 14.19 8.21 2 16.72 1.52 25 1.09 15.88-.84 32.19-2.62 41.79-14.14 5.22-6.28 7.33-14.38 9.37-22.22.88-3.39 1.79-6.89 2.94-10.19a64.51 64.51 0 0140.3-39.45c6.53-2.12 13.45-3.17 20.15-4.18 4.83-.74 9.82-1.49 14.64-2.65 14-3.34 24.16-10.21 28.64-19.35 3.19-6.5 3.53-13.93 3.85-21.11.11-2.43.22-4.94.45-7.38.52-5.73 2.9-19.49 13.61-23.45l-.16-.44z" fill="#fff"/><g style="mix-blend-mode:overlay" fill="#4A4A4A"><path d="M-26.11-102.785a98.233 98.233 0 00-69.94 28.95 99.001 99.001 0 000 139.89 98.22 98.22 0 0069.94 28.96 98.258 98.258 0 0070-29 99 99 0 000-139.89 98.261 98.261 0 00-70-28.91zm0 197.29a98.4 98.4 0 111.984-196.79 98.4 98.4 0 01-1.984 196.79z"/><path d="M-26.11-90.455a86.57 86.57 0 101.86 173.13 86.57 86.57 0 00-1.86-173.13zm0 172.63a86.08 86.08 0 010-172.16 86.07 86.07 0 110 172.13v.03z"/><path d="M-26.11-78.125a74.24 74.24 0 101.723 148.47 74.24 74.24 0 00-1.723-148.47zm0 148a73.74 73.74 0 111.717-147.47 73.74 73.74 0 01-1.717 147.47z"/><path d="M-26.11-65.795a61.91 61.91 0 101.573 123.81 61.91 61.91 0 00-1.573-123.81zm0 123.31a61.41 61.41 0 111.567-122.81 61.41 61.41 0 01-1.567 122.81z"/><path d="M-26.11-53.465a49.58 49.58 0 000 99.15 49.58 49.58 0 000-99.15zm0 98.65a49.08 49.08 0 010-98.15 49.08 49.08 0 010 98.15z"/></g><path style="mix-blend-mode:color-burn" d="M202.2 59.025c6.108 0 11.06 4.952 11.06 11.06 0 6.109-4.952 11.06-11.06 11.06-6.108 0-11.06-4.951-11.06-11.06 0-6.108 4.952-11.06 11.06-11.06z" fill="url(#paint3_radial)"/><path d="M210.101 71.431a8.08 8.08 0 11-15.729 3.712 8.08 8.08 0 0115.729-3.712z" fill="url(#paint4_linear)"/><path style="mix-blend-mode:color-dodge" d="M-5.729 131.666l-.696-.718L108.089 19.821l.696.718L-5.729 131.666z" fill="url(#paint5_linear)"/><path style="mix-blend-mode:color-dodge" d="M118.997 81.778l-.707-.707 66.9-66.9.707.708-66.9 66.899z" fill="url(#paint6_linear)"/><path d="M.58 115.795a.88.88 0 110 1.76.88.88 0 010-1.76zm6 0a.88.88 0 110 1.76.88.88 0 010-1.76zm6 0a.88.88 0 110 1.76.88.88 0 010-1.76zm-12-6a.88.88 0 110 1.76.88.88 0 010-1.76zm6 0a.88.88 0 110 1.76.88.88 0 010-1.76zm6 0a.88.88 0 110 1.76.88.88 0 010-1.76zm-12-6a.88.88 0 110 1.76.88.88 0 010-1.76zm6 0a.88.88 0 110 1.76.88.88 0 010-1.76zm6 0a.88.88 0 110 1.76.88.88 0 010-1.76zm-12-6a.88.88 0 110 1.76.88.88 0 010-1.76zm6 0a.88.88 0 110 1.76.88.88 0 010-1.76zm6 0a.88.88 0 110 1.76.88.88 0 010-1.76zm-12-6a.88.88 0 110 1.76.88.88 0 010-1.76zm6 0a.88.88 0 110 1.76.88.88 0 010-1.76zm6 0a.88.88 0 110 1.76.88.88 0 010-1.76zm-12-6a.88.88 0 110 1.76.88.88 0 010-1.76zm6 0a.88.88 0 110 1.76.88.88 0 010-1.76zm6 0a.88.88 0 110 1.76.88.88 0 010-1.76zm-12-6a.88.88 0 110 1.76.88.88 0 010-1.76zm6 0a.88.88 0 110 1.76.88.88 0 010-1.76zm6 0a.88.88 0 110 1.76.88.88 0 010-1.76zm-12-6a.88.88 0 110 1.76.88.88 0 010-1.76zm6 0a.88.88 0 110 1.76.88.88 0 010-1.76zm6 0a.88.88 0 110 1.76.88.88 0 010-1.76zm-12-6a.88.88 0 110 1.76.88.88 0 010-1.76zm6 0a.88.88 0 110 1.76.88.88 0 010-1.76zm6 0a.88.88 0 110 1.76.88.88 0 010-1.76zm-12-6a.88.88 0 110 1.76.88.88 0 010-1.76zm6 0a.88.88 0 110 1.76.88.88 0 010-1.76zm6 0a.88.88 0 110 1.76.88.88 0 010-1.76zm-12-6a.88.88 0 110 1.76.88.88 0 010-1.76zm6 0a.88.88 0 110 1.76.88.88 0 010-1.76zm6 0a.88.88 0 110 1.76.88.88 0 010-1.76zm-12-6a.88.88 0 110 1.76.88.88 0 010-1.76zm6 0a.88.88 0 110 1.76.88.88 0 010-1.76zm6 0a.88.88 0 110 1.76.88.88 0 010-1.76zm-12-6a.88.88 0 110 1.76.88.88 0 010-1.76zm6 0a.88.88 0 110 1.76.88.88 0 010-1.76zm6 0a.88.88 0 110 1.76.88.88 0 010-1.76zm-12-6a.88.88 0 110 1.76.88.88 0 010-1.76zm6 0a.88.88 0 110 1.76.88.88 0 010-1.76zm6 0a.88.88 0 110 1.76.88.88 0 010-1.76z" fill="#fff"/></g><defs><linearGradient id="paint0_linear" x1="-73.44" y1="173.435" x2="367.63" y2="478.445" gradientUnits="userSpaceOnUse"><stop stop-color="#FAB662"/><stop offset="1" stop-color="#F8EBDC"/></linearGradient><linearGradient id="paint1_linear" x1="-72.32" y1="38.065" x2="188.93" y2="38.065" gradientUnits="userSpaceOnUse"><stop stop-color="#FF8A00"/><stop offset="1" stop-color="#FFBC00"/></linearGradient><linearGradient id="paint2_linear" x1="74110.4" y1="-12478.5" x2="146266" y2="-12478.5" gradientUnits="userSpaceOnUse"><stop stop-color="#FF8A00"/><stop offset="1" stop-color="#FFBC00"/></linearGradient><linearGradient id="paint4_linear" x1="4009.52" y1="-3118.17" x2="4009.52" y2="-2900.33" gradientUnits="userSpaceOnUse"><stop stop-color="#FF8A00"/><stop offset="1" stop-color="#FFBC00"/></linearGradient><linearGradient id="paint5_linear" x1="-6.424" y1="75.751" x2="108.796" y2="75.751" gradientUnits="userSpaceOnUse"><stop/><stop offset=".11" stop-color="#060606"/><stop offset=".25" stop-color="#161616"/><stop offset=".41" stop-color="#323232"/><stop offset=".59" stop-color="#575757"/><stop offset=".78" stop-color="#888"/><stop offset=".97" stop-color="#C3C3C3"/><stop offset="1" stop-color="#CCC"/></linearGradient><linearGradient id="paint6_linear" x1="303.742" y1="-20437.9" x2="371.352" y2="-20437.9" gradientUnits="userSpaceOnUse"><stop/><stop offset=".11" stop-color="#060606"/><stop offset=".25" stop-color="#161616"/><stop offset=".41" stop-color="#323232"/><stop offset=".59" stop-color="#575757"/><stop offset=".78" stop-color="#888"/><stop offset=".97" stop-color="#C3C3C3"/><stop offset="1" stop-color="#CCC"/></linearGradient><radialGradient id="paint3_radial" cx="0" cy="0" r="1" gradientUnits="userSpaceOnUse" gradientTransform="translate(7428.8 -8456.29) scale(244.647)"><stop offset=".2" stop-color="#4D4D4D"/><stop offset=".58" stop-color="#A9A9A9"/><stop offset=".87" stop-color="#E7E7E7"/><stop offset="1" stop-color="#fff"/></radialGradient></defs></svg>