<svg width="24" height="24" fill="none" xmlns="http://www.w3.org/2000/svg"><path d="M15.8 10.4a1.6 1.6 0 110-3.2 1.6 1.6 0 010 3.2zm-3.6 3.68c.155-1.91 1.705-2.88 3.593-2.88 1.916 0 3.489.917 3.606 2.88.005.078 0 .32-.3.32H12.49c-.1 0-.3-.216-.29-.32z" fill="#7F16A7"/><rect opacity=".3" x="1.5" y="3.5" width="21" height="14" rx="1.5" stroke="#7F16A7"/><path d="M7.543 13.343a2.743 2.743 0 110-5.486 2.743 2.743 0 010 5.486zm-6.171 6.308c.266-3.273 2.922-4.937 6.16-4.937 3.283 0 5.98 1.573 6.18 4.937.009.134 0 .55-.514.55H1.87c-.172 0-.513-.372-.498-.55z" fill="#7F16A7"/></svg>