<svg width="24" height="24" fill="none" xmlns="http://www.w3.org/2000/svg"><path d="M10.973 16.064a1.5 1.5 0 001.876 0l6.367-5.107.162-.13a1.5 1.5 0 00.002-2.342l-6.531-5.233a1.5 1.5 0 00-1.876 0L4.437 8.488a1.5 1.5 0 000 2.34l.159.129 6.377 5.107z" fill="#7F16A7"/><path opacity=".3" fill-rule="evenodd" clip-rule="evenodd" d="M12.839 18.662a1.5 1.5 0 01-1.876 0L5.305 14.13a.904.904 0 10-1.116 1.42l6.805 5.245a1.5 1.5 0 001.83 0l6.803-5.24a.91.91 0 10-1.125-1.432l-5.663 4.539z" fill="#7F16A7"/></svg>