<svg xmlns="http://www.w3.org/2000/svg" xmlns:xlink="http://www.w3.org/1999/xlink" viewBox="0 0 2768.25 2757.54"><defs><linearGradient id="linear-gradient" x1="1594.16" y1="716.17" x2="1567.23" y2="781.48" gradientUnits="userSpaceOnUse"><stop offset="0" stop-color="#40447e"/><stop offset="1" stop-color="#3c3b6b"/></linearGradient><linearGradient id="linear-gradient-2" x1="606.86" y1="1630.48" x2="2159.39" y2="2386.32" gradientUnits="userSpaceOnUse"><stop offset="0" stop-color="#ff9085"/><stop offset="1" stop-color="#fb6fbb"/></linearGradient><linearGradient id="linear-gradient-3" x1="336.84" y1="1972.83" x2="1180.8" y2="1972.83" xlink:href="#linear-gradient-2"/><linearGradient id="linear-gradient-4" x1="526.82" y1="1794.9" x2="2079.34" y2="2550.73" xlink:href="#linear-gradient-2"/><linearGradient id="linear-gradient-5" x1="1143.76" y1="2344.1" x2="1146.32" y2="2344.1" gradientUnits="userSpaceOnUse"><stop offset="0" stop-color="#ffc444"/><stop offset="1" stop-color="#f36f56"/></linearGradient><linearGradient id="linear-gradient-6" x1="934.92" y1="1113.55" x2="1338.12" y2="1113.55" xlink:href="#linear-gradient-5"/><linearGradient id="linear-gradient-7" x1="1796.25" y1="795.69" x2="1756.7" y2="852.09" gradientTransform="rotate(6.1 337.484 -2823.634)" gradientUnits="userSpaceOnUse"><stop offset="0" stop-color="#aa80f9"/><stop offset="1" stop-color="#6165d7"/></linearGradient><linearGradient id="linear-gradient-8" x1="1724.3" y1="885.05" x2="1800.91" y2="727.57" xlink:href="#linear-gradient-7"/><linearGradient id="linear-gradient-9" x1="1780.22" y1="820.09" x2="1793.22" y2="811.98" gradientTransform="translate(-397.84 128.31)" gradientUnits="userSpaceOnUse"><stop offset="0" stop-color="#444b8c"/><stop offset="1" stop-color="#3e4177"/></linearGradient><linearGradient id="linear-gradient-10" x1="1792.08" y1="777.89" x2="1752.31" y2="825" xlink:href="#linear-gradient-7"/><linearGradient id="linear-gradient-11" x1="1711.11" y1="845.2" x2="1759.42" y2="845.2" gradientTransform="rotate(6.1 337.484 -2823.634)" gradientUnits="userSpaceOnUse"><stop offset="0" stop-color="#6165d7"/><stop offset="1" stop-color="#aa80f9"/></linearGradient><linearGradient id="linear-gradient-12" x1="-29774.05" y1="1716.19" x2="-29770.83" y2="1716.19" gradientTransform="scale(-1 1) rotate(-18 -169.384 23307.805)" gradientUnits="userSpaceOnUse"><stop offset="0" stop-color="#311944"/><stop offset="1" stop-color="#a03976"/></linearGradient><linearGradient id="linear-gradient-13" x1="-5302.19" y1="-2238.1" x2="-5302.19" y2="-2240.65" gradientTransform="rotate(14.78 -292.934 26364.033)" xlink:href="#linear-gradient-5"/><linearGradient id="linear-gradient-14" x1="-29773.71" y1="1802.45" x2="-29770.49" y2="1802.45" xlink:href="#linear-gradient-12"/><linearGradient id="linear-gradient-15" x1="5675.05" y1="-4184.67" x2="5675.05" y2="-4187.22" gradientTransform="scale(-1 1) rotate(-18 -169.384 23307.805)" gradientUnits="userSpaceOnUse"><stop offset="0" stop-color="#ffc444"/><stop offset="1" stop-color="#f36f56"/></linearGradient><linearGradient id="linear-gradient-16" x1="1569.87" y1="589.08" x2="1644.15" y2="436.4" gradientTransform="matrix(1.03 .11 -.12 1.09 -320.88 133.89)" xlink:href="#linear-gradient-7"/><linearGradient id="linear-gradient-17" x1="1620.23" y1="398.62" x2="1604.22" y2="451.74" gradientTransform="matrix(1.03 .11 -.12 1.09 -320.88 133.89)" xlink:href="#linear-gradient-7"/><linearGradient id="linear-gradient-18" x1="1620.3" y1="398.36" x2="1604.26" y2="451.62" gradientTransform="matrix(1.03 .11 -.12 1.09 -320.88 133.89)" xlink:href="#linear-gradient-7"/><linearGradient id="linear-gradient-19" x1="1498.23" y1="843.73" x2="1588.06" y2="843.73" xlink:href="#linear-gradient-7"/><linearGradient id="linear-gradient-20" x1="1506.9" y1="859.68" x2="1434.8" y2="901.63" gradientTransform="rotate(90 1282.78 698.73)" xlink:href="#linear-gradient-7"/><linearGradient id="linear-gradient-21" x1="1455.66" y1="843.73" x2="1554.42" y2="843.73" xlink:href="#linear-gradient-7"/><linearGradient id="linear-gradient-22" x1="1455.66" y1="842.47" x2="1515.05" y2="842.47" xlink:href="#linear-gradient-7"/><linearGradient id="linear-gradient-23" x1="773.66" y1="2510.06" x2="837.89" y2="2490.01" xlink:href="#linear-gradient-12"/><linearGradient id="linear-gradient-24" x1="899.86" y1="2080.99" x2="2379.06" y2="1619.25" xlink:href="#linear-gradient-12"/><linearGradient id="linear-gradient-25" x1="950.32" y1="2242.7" x2="2429.51" y2="1780.97" xlink:href="#linear-gradient-12"/><linearGradient id="linear-gradient-26" x1="1887.09" y1="2315.8" x2="1041.87" y2="1782.33" xlink:href="#linear-gradient-12"/><linearGradient id="linear-gradient-27" x1="1437.23" y1="2237.81" x2="1688.22" y2="2237.81" xlink:href="#linear-gradient-12"/><linearGradient id="linear-gradient-28" x1="1383.72" y1="2237.81" x2="1633.8" y2="2237.81" xlink:href="#linear-gradient-12"/><linearGradient id="linear-gradient-29" x1="1470.48" y1="1022.81" x2="1685.85" y2="1022.81" xlink:href="#linear-gradient"/><linearGradient id="linear-gradient-30" x1="1653.12" y1="841" x2="1528.2" y2="1144.01" xlink:href="#linear-gradient"/><linearGradient id="linear-gradient-31" x1="2111" y1="1513.24" x2="2494.98" y2="1513.24" xlink:href="#linear-gradient"/><linearGradient id="linear-gradient-32" x1="2929.97" y1="3682.45" x2="2984.73" y2="3682.45" gradientTransform="rotate(-90 1103.93 2719.38)" xlink:href="#linear-gradient"/><linearGradient id="linear-gradient-33" x1="2842.36" y1="3444.25" x2="3066.87" y2="3444.25" gradientTransform="rotate(-110.3 1531.778 2584.172)" xlink:href="#linear-gradient"/><linearGradient id="linear-gradient-34" x1="2820.46" y1="3633.16" x2="3094.24" y2="3633.16" gradientTransform="rotate(-90 1114.02 2726.4)" xlink:href="#linear-gradient-7"/><linearGradient id="linear-gradient-35" x1="2820.46" y1="3430.56" x2="3094.25" y2="3430.56" gradientTransform="rotate(-110.3 1531.778 2584.172)" xlink:href="#linear-gradient-7"/><linearGradient id="linear-gradient-36" x1="1793.92" y1="678.35" x2="1902.29" y2="678.35" gradientTransform="rotate(80.78 1848.136 678.407)" xlink:href="#linear-gradient"/><linearGradient id="linear-gradient-37" x1="1893.18" y1="830.68" x2="1905.15" y2="830.68" xlink:href="#linear-gradient"/><linearGradient id="linear-gradient-38" x1="2446.13" y1="1286.08" x2="2657.73" y2="1286.08" gradientTransform="rotate(45 2551.927 1286.083)" xlink:href="#linear-gradient"/><linearGradient id="linear-gradient-39" x1="2297.71" y1="646.68" x2="2447.52" y2="646.68" xlink:href="#linear-gradient"/><linearGradient id="linear-gradient-40" x1="1567.65" y1="635.4" x2="2147.52" y2="635.4" xlink:href="#linear-gradient"/><linearGradient id="linear-gradient-41" x1="2119.9" y1="662.17" x2="2168.23" y2="662.17" xlink:href="#linear-gradient"/><linearGradient id="linear-gradient-42" x1="-1127.15" y1="732.32" x2="-605.94" y2="3470.39" gradientTransform="matrix(-1 -.06 -.06 1 1565.27 55.57)" xlink:href="#linear-gradient-5"/><linearGradient id="linear-gradient-43" x1="-1099.82" y1="1676.45" x2="-826.75" y2="3110.99" gradientTransform="matrix(-1 -.06 -.06 1 1565.27 55.57)" xlink:href="#linear-gradient-7"/><linearGradient id="linear-gradient-44" x1="443.57" y1="105.96" x2="1290.98" y2="1642.22" gradientTransform="rotate(45 685.855 545.19)" xlink:href="#linear-gradient-7"/><linearGradient id="linear-gradient-45" x1="1665.31" y1="-2102.18" x2="1390.73" y2="-1778.35" gradientTransform="matrix(.34 -.94 -.94 -.34 -82.76 2056.21)" xlink:href="#linear-gradient-7"/><linearGradient id="linear-gradient-46" x1="1697.8" y1="-2074.62" x2="1423.22" y2="-1750.8" gradientTransform="matrix(.34 -.94 -.94 -.34 -82.76 2056.21)" xlink:href="#linear-gradient-7"/><linearGradient id="linear-gradient-47" x1="1730.51" y1="-2046.89" x2="1455.93" y2="-1723.06" gradientTransform="matrix(.34 -.94 -.94 -.34 -82.76 2056.21)" xlink:href="#linear-gradient-7"/><style>.cls-3{fill:#d8dee8}.cls-4{opacity:.8}.cls-4,.cls-45{mix-blend-mode:soft-light}.cls-45,.cls-5{fill:#fff}.cls-42{mix-blend-mode:multiply}.cls-45{opacity:.3}.cls-41,.cls-42{fill:#97a6b7}.cls-42{opacity:.4}</style></defs><g style="isolation:isolate"><g id="Layer_2" data-name="Layer 2"><g id="Illustration"><path d="M2729.8 1938.5c-80.63 310-307.67 597.16-857.65 745.72-198.74 53.7-430 80.07-636.23 63.78-303.47-24-621.54-161-874.3-316.3-174.92-107.49-244.54-252.52-269.19-416.47-15.25-101.38-13.32-210-8.45-321.38 7.32-167.61-19.33-336.39-58.78-499.48-60.72-251.11-10.7-514.5 139.1-730.5S550.81 97.59 820.79 47.09c454.85-85.05 916.3-28.92 916.3-28.92 607.76 63.13 915.4 666.5 990.43 1157.63 34.31 224.46 70.18 501.69 2.28 762.7z" fill="#f4f7fa"/><path class="cls-3" d="M779.26 2204.83c163.7 7.52 343.66-102.25 409.27-249.78 119.3-268.28-177-399.31-214.94-637-30.84-193.33 74.34-383.85 36.21-577.05C976.26 571 835.21 418.89 662 388.39c-149.36-26.31-317.36 50.28-394.83 184-57.72 99.65-88 259.32-68.91 373.74 15.59 93.5 46.71 182.67 102.55 259.91 45.42 62.84 111.17 114.57 138 189.27 50.85 141.51-25.36 303.38-20.75 446.15 3.22 99.77 56.63 213 133.8 276.28 67.14 55.09 146.35 83.37 227.4 87.09z"/><g class="cls-4"><path class="cls-5" d="M796.67 2161.42a5.18 5.18 0 01-3.69-5.21c.09-2 9.17-200.4-11.75-468-19.31-246.82-68.81-604.65-195.05-907.65a5.18 5.18 0 019.56-4c126.78 304.31 176.47 663.36 195.82 911 21 268.21 11.86 467.16 11.76 469.14a5.18 5.18 0 01-5.42 4.93 5.55 5.55 0 01-1.23-.21z"/></g><path d="M696.77 1509.65c-225.59-364.16-519.07-318.85-593.08-192.52-73.29 125.11-275.28 830.41 662.06 900a35.08 35.08 0 0036.4-25.56c24.61-88.51 82.48-378.65-105.38-681.92z" fill="#bfc8d6"/><g class="cls-4"><path class="cls-5" d="M773.13 2189.31a5.16 5.16 0 01-3.58-3.82c-.21-.9-21.22-91.87-91.1-223.73-64.49-121.68-185-304.06-392.77-482a5.18 5.18 0 116.73-7.87c209.19 179.1 330.48 362.81 395.4 485.39 70.42 133 91.63 225 91.84 225.89a5.18 5.18 0 01-3.91 6.19 5.11 5.11 0 01-2.61-.05z"/><path class="cls-5" d="M596.65 1823.64a5.16 5.16 0 01-2.88-7.77c.92-1.44 91.37-145.38-15.89-288.82a5.18 5.18 0 118.29-6.2c58.34 78 59.69 155.6 50.55 206.93-9.9 55.55-33.26 92.18-34.25 93.71a5.19 5.19 0 01-5.82 2.15zm-254.06-110.76c-33.06-9.83-69.87-28.85-107.58-63.12a5.17 5.17 0 117-7.66c134 121.76 256.75 46.33 258 45.55a5.18 5.18 0 015.55 8.75c-1.33.84-33.09 20.66-82.53 24.92a216.4 216.4 0 01-80.44-8.44zm191.18 301.69c-33.06-9.82-69.87-28.84-107.58-63.12a5.17 5.17 0 017-7.66c134 121.77 256.75 46.33 258 45.56a5.18 5.18 0 115.55 8.74c-1.33.85-33.09 20.66-82.53 24.93a216.22 216.22 0 01-80.44-8.45z"/></g><rect x="1560.75" y="707.04" width="34.52" height="96.64" rx="16.37" fill="url(#linear-gradient)"/><path d="M1547.22 2293.85c60.92-42.33 190.17-145.36 247.69-321.74 91.16-279.59-40.69-612.42-298.76-768.6-305.87-185.11-636.62-29.85-676.68-10.22-228.82 112.14-324.47 310.57-377.92 421.33-93.79 194.5-222.95 611.55-33.19 773.71 111.06 94.91 286.59 64.23 492.87 28.19 208.72-36.47 262.25-104.11 275.73-122.67 51.26-70.58 27.25-125.18 48.32-247.78 34.11-198.45 159.25-417.48 254.34-410.53 77.47 5.67 133.37 161.18 143.53 267.9 17.32 182-89.4 316-117.83 349.58z" fill="url(#linear-gradient-2)"/><path d="M939.48 2005.3c-83.14-131.54 179.24-364 109.8-467.29-49-72.86-240.34-47.33-370.25 20.43C444.64 1680.7 382.29 1955 359.84 2053.82A931.57 931.57 0 00337.16 2285c15.57 40.32 38.7 75.56 71.2 103.33 111.06 94.91 286.59 64.23 492.87 28.19 208.72-36.47 262.25-104.11 275.73-122.67 1.34-1.85 2.6-3.67 3.84-5.5-.51-68.69-16.28-132.84-60-178.35-65.04-67.65-141.71-42-181.32-104.7z" style="mix-blend-mode:multiply" opacity=".2" fill="url(#linear-gradient-3)"/><path d="M934.92 2309s-442.3 35-352.92-292.67 390.18-577.13 390.18-577.13l-152.71-245.91s-714.7 329.4-802.93 860.53 869.1 346.66 869.1 346.66z" fill="url(#linear-gradient-4)"/><path d="M1162.4 2389.25s-26.88-89.95-68.72-110.55-158.76 30.3-158.76 30.3-52.45 73.23-49.28 91.44 97.45 22.44 130.52-11.23 78.34-38.32 97.87-9.41 48.37 9.45 48.37 9.45z" fill="url(#linear-gradient-5)"/><path d="M1154.74 968.1l-45.86 98.42a78.54 78.54 0 01-48.79 42.11l-125.17 37.25s273.59 118.06 278.67 112.95 124.53-122.95 124.53-122.95l-40.93-14.88a66.11 66.11 0 01-43.41-58l-4.7-75.66z" fill="url(#linear-gradient-6)"/><path d="M1359.14 893.14l7.95.85c32.74 3.5 55.45 42.15 50.73 86.34l-.26 2.48c-4.73 44.18-35.09 77.16-67.83 73.66l-8-.85c-16.52-1.76-26-39.56-21.22-84.43s22.12-79.81 38.63-78.05z" fill="url(#linear-gradient-7)"/><path d="M1301.9 969.19c-5.25 49.11 9.63 91 34 93.58s49.07-35 54.31-84.13-10.91-91.11-35.31-93.72-47.75 35.16-53 84.27z" fill="url(#linear-gradient-8)"/><path transform="rotate(6.1 1342.544 973.88)" fill="url(#linear-gradient-9)" d="M1337.36 884.06h9.37v178.86h-9.37z"/><path d="M1293.21 968.27c-5.24 49.11 10.28 91 34.67 93.64s48.43-35.09 53.68-84.2-10.27-91-34.67-93.65-48.43 35.1-53.68 84.21z" fill="url(#linear-gradient-10)"/><path d="M1313.37 970.42c-2.85 26.7 5.59 49.5 18.85 50.92s26.33-19.08 29.18-45.79-5.58-49.5-18.85-50.91-26.33 19.08-29.18 45.78z" style="mix-blend-mode:multiply" opacity=".6" fill="url(#linear-gradient-11)"/><path d="M1341.41 962.39c30.79-20 48.5-67.78 34.17-107.09-12.33-33.8-44.45-49.38-63.66-58.7-55.59-27-136.22-29.25-178.89 13.45-25.24 25.28-14.41 100.33-13.21 113.56 1.36 15 10.24 23.11 16.55 36.32 8.74 18.33 22.32 47.36 44.21 95.64a233.93 233.93 0 0126-33.34c4.33-4.61 21.5-22.51 42.54-34.93 42.16-24.93 63.14-5.99 92.29-24.91z" fill="url(#linear-gradient-12)"/><path d="M1142.24 1007.79s17.33 74 94.31 96.5c69.13 20.17 129.26-124.08 96.55-171-10.91-15.63-38.36-30.3-64-32.26-15.14-1.17-21.74 2.77-46.44.39-22.76-2.18-27.91-6.56-36-3.63-10.1 3.67-21.27 17.5-22.64 65.32-8.56-17.3-22.33-27.7-35-26.58a23.43 23.43 0 00-11.84 5.31c-15.05 13.47-6.57 40.59 25.06 65.95z" fill="url(#linear-gradient-13)"/><path d="M1186.58 887.91c2.45 3.52-11.49 11.8-17.89 28.29-12.43 32 8.1 83.07 41.41 98.76 19.72 9.28 29.38-.67 64.29 8a170.82 170.82 0 0148.37 20.49c-1.49 39.54-23.58 71.53-53.72 79.17-32.4 8.22-62.41-14.72-75-24.3-8.38-6.41-35.24-26.86-41.86-59.43-6.9-33.93 14.89-45 2.51-70.77-6.24-13-17.29-21.58-23.14-44.44a97.11 97.11 0 01-2.61-14.92c23.48-11.76 54.06-25.96 57.64-20.85z" fill="url(#linear-gradient-14)"/><path d="M1293.66 1047.82s-17.14 2.17-41.92-8.3c-1.21-.51-2.68-.65-3-.08-1.36 2.12 11.29 18.39 27.6 19.69 11.59.91 23.16-5.88 22.57-8.88-.3-1.25-2.74-1.99-5.25-2.43z" fill="url(#linear-gradient-15)"/><path d="M1155.1 898.79l-10.1-1.17 3.57-31.23c6.16-53.86 48.28-94 95.89-91.33l51 2.84c26.65 1.48 50.65 14.9 67.6 37.8s24.5 52.11 21.28 82.27l-2.67 25-10.12-1.08 2.67-25c2.89-27-3.88-53.14-19-73.63s-36.66-32.5-60.5-33.82l-51-2.84c-42.21-2.34-79.55 33.22-85 81z" fill="url(#linear-gradient-16)"/><path d="M1361 842.22a14.44 14.44 0 01-10.6-6.81c-13.24-20.62-33.85-33.17-56.55-34.44l-51-2.83c-17.8-1-35.23 5.73-49.08 18.92-6.55 6.24-16.18 5.41-21.5-1.85a19.06 19.06 0 012.21-24.43c20-19 45.06-28.68 70.69-27.25l51 2.83c31.78 1.76 60.6 19.32 79.11 48.17 4.9 7.63 3.31 18.5-3.56 24.26a14.23 14.23 0 01-10.72 3.43z" fill="url(#linear-gradient-17)"/><path d="M1343.41 804.86c-36-16.32-35-27.68-54.35-30.62-36.27-5.51-55.15 31.87-90.09 22.94a53.77 53.77 0 01-20.12-10.28q-2.19 1.88-4.31 3.88a19.06 19.06 0 00-2.21 24.43c5.32 7.26 15 8.09 21.5 1.85 13.85-13.19 31.28-19.91 49.08-18.92l51 2.83c22.7 1.27 43.31 13.82 56.55 34.44a14.44 14.44 0 0010.6 6.81 14.23 14.23 0 0010.72-3.43c6.22-5.22 8.12-14.64 4.77-22a216.91 216.91 0 01-33.14-11.93z" style="mix-blend-mode:multiply" fill="url(#linear-gradient-18)" opacity=".3"/><path d="M1191.18 955.88c-5.31 49.65-29.61 87.77-54.27 85.13s-40.36-45-35.05-94.68 29.6-87.76 54.26-85.13 40.36 45.03 35.06 94.68z" fill="url(#linear-gradient-19)"/><ellipse cx="1137.73" cy="950.17" rx="90.41" ry="44.91" transform="rotate(-83.9 1137.741 950.17)" fill="url(#linear-gradient-20)"/><path d="M1136.27 866.94l-8-.86c-33.09-3.54-63.8 29.81-68.57 74.48l-.27 2.5c-4.77 44.68 18.19 83.76 51.29 87.29l8 .86c16.7 1.79 34.16-33.54 39-78.91s-4.72-83.58-21.45-85.36z" fill="url(#linear-gradient-21)"/><path d="M1118.71 946.86c-3.49 32.74-19.55 57.88-35.86 56.13s-26.69-29.7-23.19-62.44 19.56-57.87 35.86-56.13 26.69 29.7 23.19 62.44z" fill="url(#linear-gradient-22)"/><path class="cls-5" d="M1874.55 2356.93l-851.79 132.69 250.98-772.7 807.72-98.01-206.91 738.02z"/><path fill="url(#linear-gradient-23)" d="M762.22 2494.32l70.46-10.47-13.58 31.33-56.88-20.86z"/><path d="M2266.93 1659.73c-1.83-1.48-3.12-3.7-5.87-3.71a38.6 38.6 0 00-6.6.54l-1158.39 118.17c-22.41 2.27-46.75 22.1-53.92 43.91l-227.77 691.71v.09l-52.13-16.12a10.5 10.5 0 00-13.1 6.83l-1.9 5.9a10.51 10.51 0 006.56 13.14l53.92 18.7 36 12.52 2.93 1.48-.34-2.42 1067.2-185.27c16.52-2.87 36.9-18.4 44.77-34.72l309.44-641c2.82-5.84 4.33-11.23 4.43-15.88 5.49 4.06 13.34 7.25 24.37 8.53-1.69-8.28-19.46-17.8-29.6-22.4zm-343.34 143.61c12.17-27.4 43-52.09 68.62-54.86s36 17.17 23.6 44.38c-12.32 27-42.65 51.15-67.93 54.17-25.43 3.02-36.41-16.48-24.29-43.69zm-3.46 105.38c25.13-3.12 35.77 15.63 23.89 41.7-11.82 25.88-41.45 49.43-66.44 52.79s-36.16-14.89-24.59-41c11.68-26.28 41.81-50.32 67.14-53.49zM1768.3 1821c11.82-27.81 43-52.89 69.56-55.76 26.36-2.87 37.79 17.32 25.72 44.92-11.92 27.36-42.64 51.9-68.76 55s-38.25-16.55-26.52-44.16zm-.45 106.76c26-3.22 37.5 15.68 26 42.15-11.43 26.22-41.46 50.16-67.24 53.62s-37.94-15-26.71-41.45c11.31-26.61 41.83-51.08 67.95-54.31zm-160.09-88.51c11.43-28.2 43.09-53.68 70.5-56.65 27.26-3 39.73 17.47 28 45.42-11.58 27.8-42.69 52.74-69.7 56-27.12 3.18-40.13-16.76-28.8-44.76zm2.77 108.2c26.87-3.37 39.38 15.78 28.2 42.59-11.08 26.57-41.46 50.86-68.07 54.47-26.77 3.61-39.82-15.09-29-41.9 10.94-27 41.86-51.79 68.87-55.15zm-168.8-89.3c11-28.64 43-54.52 71.39-57.59s41.76 17.62 30.53 46c-11.18 28.15-42.7 53.48-70.65 56.8s-42.2-16.8-31.27-45.2zm6.19 109.63c27.75-3.46 41.36 15.88 30.57 43-10.68 27-41.5 51.65-69 55.36s-41.75-15.14-31.37-42.35c10.53-27.31 41.88-52.54 69.8-56zm-178.1-90.09c10.54-29 43-55.36 72.43-58.57 29.19-3.17 43.93 17.76 33.09 46.6-10.73 28.54-42.64 54.32-71.58 57.78s-44.38-16.96-33.94-45.8zM1209 2045.81c10-27.76 41.8-53.38 70.69-57 28.7-3.61 43.44 16 33.1 43.54-10.24 27.31-41.46 52.44-69.9 56.25-28.58 3.86-43.89-15.19-33.89-42.79zM1091.82 1898c10-29.53 43-56.29 73.42-59.61 30.27-3.26 46.2 17.91 35.86 47.15-10.24 29-42.59 55.26-72.52 58.77-30.13 3.59-46.65-17.09-36.76-46.31zM1034 2068.51c9.55-28.15 41.7-54.22 71.63-57.93 29.73-3.71 45.67 16.08 35.82 44-9.8 27.71-41.41 53.23-70.84 57.19-29.61 3.99-46.12-15.26-36.61-43.26zm-4.31 302.43c-9 25.38-39.18 49.62-67.62 54.27-28.65 4.7-45-12.12-36.27-37.7 8.71-25.78 39.43-50.51 68.37-55 28.74-4.42 44.57 12.85 35.51 38.43zm54.67-154.7c-9.4 26.51-40.27 51.35-69.21 55.7-29.14 4.36-45.52-13.65-36.46-40.37 9.15-27 40.57-52.29 70-56.44s45.06 14.39 35.66 41.11zm111.31 128.28c-9.4 25-39.23 48.88-66.78 53.38-27.71 4.55-43-12.12-33.79-37.4s39.52-49.72 67.52-54.08c27.8-4.3 42.54 12.82 33.04 38.1zM1253 2191.8c-9.8 26.17-40.27 50.61-68.27 54.81-28.15 4.21-43.44-13.65-33.89-40 9.65-26.57 40.67-51.5 69.06-55.51s42.95 14.33 33.1 40.7zm103.4 127.09c-9.85 24.79-39.28 48.24-66 52.59s-41-12.12-31.36-37.06c9.64-25.18 39.57-49.07 66.63-53.28s40.57 12.86 30.68 37.75zm-7.67-96.82c-27.26 4.06-41.41-13.55-31.41-39.62s40.71-50.76 68.17-54.62 41 14.3 30.67 40.32c-10.29 25.85-40.37 49.85-67.48 53.92zm163.26 72c-10.2 24.43-39.29 47.59-65.16 51.79s-39.13-12.12-29.14-36.75c10-24.84 39.63-48.44 65.85-52.5 26.02-3.96 38.69 12.86 28.4 37.5zm-4.51-95.73c-26.36 3.91-39.47-13.56-29.09-39.28 10.49-25.88 40.72-50 67.34-53.78 26.46-3.71 39.08 14.25 28.34 39.93-10.68 25.51-40.42 49.21-66.64 53.17zm155.3 71.68c-10.54 24.19-39.28 47-64.32 51.06-25.23 4.1-37.4-12.12-27.06-36.46 10.44-24.54 39.63-47.74 65-51.7s36.96 12.8 26.33 37.14zm-1.54-94.69c-25.58 3.81-37.69-13.5-26.91-38.88s40.71-49.33 66.44-52.94 37.3 14.15 26.22 39.53c-10.99 25.22-40.42 48.52-65.8 52.33zm147.76 71.43c-10.88 23.9-39.28 46.36-63.57 50.31-24.44 4-35.71-12.12-25-36.16 10.74-24.24 39.58-47.1 64.22-50.91 24.41-3.81 35.25 12.72 24.35 36.76zm1.19-93.65c-24.73 3.71-36-13.46-24.83-38.49 11.18-25.23 40.66-48.68 65.65-52.19 24.83-3.46 35.57 14.15 24.14 39.18-11.37 24.83-40.36 47.84-65 51.5zm140.6 71.09c-11.18 23.6-39.23 45.71-62.78 49.57-23.75 3.86-34.18-12.12-23.15-35.91s39.58-46.46 63.42-50.17 33.72 12.72 22.47 36.51zm68-143.42c-11.62 24.54-40.26 47.2-64.16 50.76s-34.33-13.41-22.86-38.14c11.53-24.94 40.62-48 64.81-51.4s33.87 14.05 22.14 38.78zm70.75-149.25c-12.12 25.52-41.36 48.78-65.55 52-24.34 3.27-34.53-14.79-22.61-40.57s41.76-49.57 66.24-52.63 34.02 15.47 21.85 41.2zm73.66-155.44c-12.61 26.61-42.54 50.41-67 53.33s-34.68-16.33-22.26-43.19c12.52-27 42.94-51.31 67.77-54s34.14 17.04 21.42 43.86z" fill="url(#linear-gradient-25)"/><path d="M2293.4 1705.2c9.41-19.16 2.93-33.34-14.59-31.59L1121 1789.24c-22.41 2.24-46.49 21.51-53.67 42.93l-233.17 695.37c-5.87 17.51 6.19 28.78 26.83 25.26l1079.23-184.18c16.52-2.82 36.22-18 44.1-34.08zM987.45 2427.54c-28.63 4.59-45-11.9-36.28-37 8.75-25.31 39.45-49.55 68.37-54 28.76-4.37 44.58 12.59 35.55 37.71-8.97 24.94-39.16 48.75-67.64 53.29zm53.08-150.49c-29.11 4.27-45.53-13.39-36.46-39.64 9.14-26.46 40.57-51.35 70-55.4 29.24-4 45.12 14.12 35.68 40.36-9.39 26.04-40.28 50.43-69.22 54.68zm55.47-157.23c-29.6 3.91-46.09-15-36.6-42.46 9.56-27.67 41.74-53.24 71.65-56.91 29.73-3.65 45.65 15.79 35.79 43.21-9.84 27.22-41.43 52.27-70.84 56.16zm58-164.43c-30.11 3.51-46.66-16.77-36.73-45.51 10-29 43-55.26 73.41-58.51 30.25-3.22 46.2 17.61 35.88 46.31-10.28 28.48-42.66 54.22-72.56 57.71zm.3 445.36c-27.7 4.45-42.91-11.91-33.77-36.73 9.22-25 39.53-48.85 67.51-53.11 27.82-4.24 42.53 12.58 33 37.38-9.39 24.63-39.21 48.03-66.77 52.46zm55.79-148.58c-28.15 4.13-43.4-13.36-33.85-39.27 9.62-26.09 40.64-50.58 69.07-54.5 28.26-3.9 43 14.08 33.09 40-9.85 25.66-40.34 49.67-68.34 53.77zm58.25-155.11c-28.61 3.78-43.89-14.94-33.91-42 10.06-27.27 41.81-52.43 70.7-56 28.72-3.53 43.45 15.7 33.12 42.74-10.25 26.86-41.5 51.5-69.94 55.26zm60.86-162.1c-29.07 3.39-44.36-16.64-33.92-45 10.51-28.53 43-54.38 72.4-57.51 29.2-3.12 43.91 17.45 33.11 45.73-10.79 28.1-42.71 53.41-71.62 56.82zm-13.4 439.85c-26.83 4.31-41-11.92-31.39-36.42 9.64-24.68 39.57-48.17 66.65-52.3s40.59 12.58 30.7 37.07c-9.85 24.32-39.3 47.37-65.99 51.65zm58.31-146.7c-27.25 4-41.39-13.34-31.4-38.9 10.06-25.75 40.68-49.85 68.17-53.64s41 14 30.67 39.57c-10.28 25.36-40.38 48.99-67.47 52.97zm60.82-153.06c-27.66 3.66-41.8-14.86-31.36-41.56 10.51-26.89 41.84-51.63 69.76-55.06s41.37 15.61 30.6 42.27c-10.72 26.47-41.52 50.72-69.03 54.35zm63.52-159.83c-28.09 3.28-42.21-16.52-31.3-44.42 11-28.11 43.07-53.52 71.43-56.55 28.2-3 41.75 17.3 30.5 45.17-11.2 27.65-42.73 52.58-70.66 55.8zm-26.22 434.47c-26 4.18-39.13-11.92-29.15-36.12 10-24.38 39.6-47.51 65.82-51.5s38.75 12.56 28.48 36.75c-10.24 24.02-39.32 46.72-65.18 50.87zm60.63-144.87c-26.37 3.87-39.48-13.31-29.08-38.54 10.47-25.41 40.7-49.14 67.31-52.8s39.08 14 28.37 39.18c-10.67 25.04-40.4 48.34-66.63 52.16zm63.14-151.05c-26.76 3.54-39.82-14.79-29-41.12 10.93-26.52 41.85-50.86 68.86-54.18 26.85-3.3 39.39 15.51 28.22 41.81-11.02 26.11-41.42 49.97-68.08 53.49zm66-157.62c-27.16 3.17-40.17-16.4-28.83-43.9 11.41-27.7 43.07-52.7 70.47-55.62s39.72 17.16 28 44.62c-11.52 27.26-42.64 51.75-69.64 54.9zm-38.21 429.2c-25.2 4.05-37.39-11.92-27-35.83 10.41-24.07 39.61-46.86 65-50.73s37 12.54 26.37 36.44c-10.57 23.77-39.3 46.1-64.36 50.12zm62.78-143.09c-25.55 3.75-37.68-13.26-26.9-38.17 10.86-25.09 40.7-48.45 66.46-52s37.28 13.92 26.21 38.81c-10.99 24.71-40.34 47.63-65.76 51.36zm65.43-149.09c-25.91 3.42-38-14.71-26.72-40.68 11.31-26.17 41.84-50.12 68-53.33 26-3.19 37.53 15.4 26 41.35-11.5 25.76-41.52 49.26-67.28 52.66zm68.21-155.47c-26.27 3.07-38.23-16.27-26.5-43.38 11.81-27.31 43-51.9 69.55-54.72 26.35-2.82 37.78 17 25.74 44.08-12 26.87-42.66 50.98-68.79 54.02zm-49.43 424.05c-24.44 3.92-35.73-11.91-25-35.53 10.76-23.78 39.6-46.23 64.23-50s35.34 12.51 24.38 36.11-39.3 45.51-63.61 49.42zm64.78-141.35c-24.76 3.63-36-13.22-24.84-37.81 11.2-24.77 40.67-47.77 65.64-51.21s35.55 13.85 24.15 38.43c-11.33 24.4-40.32 46.98-64.95 50.59zm67.44-147.17c-25.09 3.31-36.19-14.63-24.6-40.26 11.68-25.81 41.81-49.4 67.11-52.5s35.76 15.3 23.88 40.9c-11.79 25.42-41.39 48.56-66.39 51.86zm70.29-153.38c-25.43 3-36.41-16.14-24.32-42.87 12.18-26.92 43-51.12 68.65-53.86 25.49-2.72 35.95 16.87 23.57 43.56-12.29 26.5-42.6 50.23-67.89 53.17zm-60 419c-23.71 3.81-34.15-11.9-23.14-35.23 11.07-23.5 39.56-45.62 63.45-49.26s33.77 12.49 22.51 35.81c-11.11 23.17-39.17 44.9-62.76 48.68zm66.71-139.64c-24 3.53-34.33-13.17-22.88-37.46 11.53-24.45 40.63-47.11 64.83-50.44s33.93 13.79 22.22 38.05c-11.67 24.1-40.31 46.35-64.17 49.85zm69.33-145.31c-24.31 3.21-34.51-14.54-22.58-39.83 12-25.47 41.75-48.69 66.26-51.7s34.09 15.2 21.89 40.46c-12.14 25.09-41.41 47.88-65.6 51.07zm72.21-151.33c-24.63 2.87-34.68-16-22.25-42.38 12.51-26.55 42.94-50.36 67.76-53s34.23 16.72 21.52 43c-12.65 26.17-42.57 49.53-67.06 52.38z" fill="url(#linear-gradient-26)"/><path d="M1582.61 1931.41l-139 525-6.36 87.78 55.23-12.48 2.75-42.11s87.19-68.44 94.72-129.45 24-206.5 68.54-246.72 40.4-165.55-21.44-182c-12.38 6.57-54.44-.02-54.44-.02z" fill="url(#linear-gradient-27)"/><path d="M1564.67 1977.65l-175.5 478.78-5.45 81.25 53.51 6.53 3.57-54.59s87.18-68.44 94.71-129.45 24-206.5 68.54-246.72 40.4-165.55-21.44-182c-12.09 41.89-17.94 46.2-17.94 46.2z" fill="url(#linear-gradient-28)"/><ellipse cx="1578.17" cy="1022.81" rx="107.69" ry="249.01" fill="url(#linear-gradient-29)"/><ellipse cx="1578.17" cy="1022.81" rx="87.9" ry="229.22" fill="url(#linear-gradient-30)"/><path d="M2383.12 2210.11l-19.64-2.43 111.14-897.57L2260.22 872a64 64 0 00-74.31-33.57l-69.69 19.07-5.22-19.08 69.68-19.08a83.83 83.83 0 0197.31 44l217 443.4z" fill="url(#linear-gradient-31)"/><rect x="1993.18" y="838.46" width="147.85" height="54.76" rx="26.47" transform="rotate(-20.3 2067.434 865.926)" fill="url(#linear-gradient-32)"/><path d="M1661.9 899l292.74-108.3c27-10 52.45-.25 61.89 25.27l43.23 116.84c9.44 25.52-.26 58.48-27.22 68.45l-292.74 108.29c-27 10-60.91-6.84-70.35-32.36l-43.23-116.84c-9.44-25.52 8.72-51.35 35.68-61.35z" fill="url(#linear-gradient-33)"/><rect x="1996.24" y="746.04" width="49.28" height="273.8" rx="23.27" transform="rotate(-20.3 2021.169 883.008)" fill="url(#linear-gradient-34)"/><path class="cls-41" d="M1661.9 899l133.53-49.4 77.9 210.57-133.53 49.4c-27 10-60.91-6.84-70.35-32.36l-43.23-116.84c-9.44-25.54 8.72-51.37 35.68-61.37z"/><path class="cls-42" d="M1708.91 1081a7.42 7.42 0 11-4.38 9.53 7.42 7.42 0 014.38-9.53zm-9.5-25.72a7.42 7.42 0 11-4.38 9.53 7.42 7.42 0 014.38-9.53zm-9.5-25.68a7.42 7.42 0 11-4.38 9.53 7.42 7.42 0 014.38-9.53zm-9.5-25.68a7.42 7.42 0 11-4.38 9.53 7.42 7.42 0 014.38-9.53z"/><circle class="cls-42" cx="1673.48" cy="985.2" r="7.42" transform="rotate(-77.38 1673.612 985.176)"/><path class="cls-42" d="M1661.41 952.56a7.42 7.42 0 11-4.38 9.53 7.42 7.42 0 014.38-9.53z"/><circle class="cls-42" cx="1654.48" cy="933.84" r="7.42" transform="rotate(-65.3 1654.576 933.831)"/><path class="cls-42" d="M1733.25 1083.63a7.42 7.42 0 11-4.38 9.53 7.41 7.41 0 014.38-9.53zm-9.5-25.63a7.42 7.42 0 11-4.38 9.53 7.41 7.41 0 014.38-9.53z"/><circle class="cls-42" cx="1716.83" cy="1039.23" r="7.42" transform="rotate(-65.2 1719.257 1034.977)"/><path class="cls-42" d="M1704.75 1006.59a7.42 7.42 0 11-4.38 9.53 7.42 7.42 0 014.38-9.53zm-9.5-25.68a7.42 7.42 0 11-4.38 9.53 7.42 7.42 0 014.38-9.53zm-9.5-25.67a7.42 7.42 0 11-4.38 9.52 7.41 7.41 0 014.38-9.52zm-9.5-25.68a7.42 7.42 0 11-4.38 9.52 7.42 7.42 0 014.38-9.52zm-9.5-25.68a7.42 7.42 0 11-4.38 9.53 7.42 7.42 0 014.38-9.53zm85.71 160.97a7.41 7.41 0 11-4.38 9.52 7.42 7.42 0 014.38-9.52z"/><circle class="cls-42" cx="1745.53" cy="1046.12" r="7.42" transform="rotate(-18 1745.805 1046.24)"/><path class="cls-42" d="M1733.46 1013.49a7.41 7.41 0 11-4.38 9.53 7.42 7.42 0 014.38-9.53z"/><circle class="cls-42" cx="1726.53" cy="994.77" r="7.42" transform="rotate(-77.38 1726.664 994.748)"/><path class="cls-42" d="M1714.46 962.13a7.41 7.41 0 11-4.38 9.53 7.41 7.41 0 014.38-9.53zm-9.46-25.68a7.41 7.41 0 11-4.39 9.53 7.4 7.4 0 014.39-9.53zm-9.54-25.67a7.41 7.41 0 11-4.39 9.52 7.4 7.4 0 014.39-9.52zm81.34 156.74a7.42 7.42 0 11-4.38 9.53 7.42 7.42 0 014.38-9.53zm-9.5-25.68a7.42 7.42 0 11-4.38 9.53 7.42 7.42 0 014.38-9.53zm-9.5-25.68a7.42 7.42 0 11-4.38 9.53 7.42 7.42 0 014.38-9.53z"/><circle class="cls-42" cx="1750.87" cy="997.44" r="7.42" transform="rotate(-87.68 1750.794 997.459)"/><path class="cls-42" d="M1738.8 964.8a7.42 7.42 0 11-4.38 9.53 7.42 7.42 0 014.38-9.53zm-9.5-25.68a7.42 7.42 0 11-4.38 9.53 7.42 7.42 0 014.38-9.53zm-9.5-25.67a7.42 7.42 0 11-4.38 9.52 7.42 7.42 0 014.38-9.52zm-9.5-25.68a7.41 7.41 0 11-4.38 9.53 7.42 7.42 0 014.38-9.53zm85.7 160.97a7.41 7.41 0 11-4.38 9.52 7.41 7.41 0 014.38-9.52z"/><circle class="cls-42" cx="1789.08" cy="1030.01" r="7.42" transform="rotate(-85.62 1788.989 1030.03)"/><path class="cls-42" d="M1777 997.38a7.42 7.42 0 11-4.38 9.53 7.41 7.41 0 014.38-9.53zm-9.5-25.68a7.42 7.42 0 11-4.38 9.53 7.42 7.42 0 014.38-9.53zM1758 946a7.42 7.42 0 11-4.38 9.53A7.42 7.42 0 011758 946zm-9.5-25.66a7.42 7.42 0 11-4.38 9.53 7.42 7.42 0 014.38-9.53zm-9.5-25.68a7.42 7.42 0 11-4.38 9.53 7.42 7.42 0 014.38-9.53z"/><circle class="cls-42" cx="1822.92" cy="1058.36" r="7.42" transform="rotate(-85.62 1822.832 1058.381)"/><path class="cls-42" d="M1810.85 1025.73a7.41 7.41 0 11-4.38 9.53 7.42 7.42 0 014.38-9.53zm-9.5-25.68a7.41 7.41 0 11-4.38 9.53 7.41 7.41 0 014.38-9.53zm-9.5-25.68a7.41 7.41 0 11-4.38 9.53 7.41 7.41 0 014.38-9.53zm-9.5-25.68a7.41 7.41 0 11-4.39 9.53 7.41 7.41 0 014.39-9.53z"/><circle class="cls-42" cx="1775.42" cy="929.97" r="7.42" transform="rotate(-77.38 1775.553 929.94)"/><path class="cls-42" d="M1763.35 897.34a7.41 7.41 0 11-4.39 9.52 7.4 7.4 0 014.39-9.52z"/><circle class="cls-42" cx="1756.42" cy="878.61" r="7.42" transform="rotate(-65.3 1756.515 878.6)"/><circle class="cls-42" cx="1842.12" cy="1039.58" r="7.42" transform="rotate(-77.38 1842.268 1039.557)"/><path class="cls-42" d="M1830.05 1007a7.42 7.42 0 11-4.38 9.52 7.42 7.42 0 014.38-9.52zm-9.5-25.73a7.42 7.42 0 11-4.38 9.53 7.42 7.42 0 014.38-9.53z"/><circle class="cls-42" cx="1813.62" cy="962.54" r="7.42" transform="rotate(-87.68 1813.543 962.569)"/><path class="cls-42" d="M1801.55 929.91a7.42 7.42 0 11-4.38 9.53 7.42 7.42 0 014.38-9.53zm-9.5-25.68a7.42 7.42 0 11-4.38 9.53 7.42 7.42 0 014.38-9.53zm-9.5-25.68a7.42 7.42 0 11-4.38 9.53 7.42 7.42 0 014.38-9.53zm81.34 156.75a7.42 7.42 0 11-4.38 9.52 7.41 7.41 0 014.38-9.52zm-9.5-25.68a7.42 7.42 0 11-4.38 9.52 7.41 7.41 0 014.38-9.52z"/><circle class="cls-42" cx="1847.47" cy="990.89" r="7.42" transform="rotate(-18 1847.753 990.999)"/><path class="cls-42" d="M1835.39 958.26a7.42 7.42 0 11-4.38 9.53 7.42 7.42 0 014.38-9.53zm-9.5-25.68a7.42 7.42 0 11-4.38 9.53 7.42 7.42 0 014.38-9.53zm-9.5-25.68a7.42 7.42 0 11-4.38 9.53 7.42 7.42 0 014.38-9.53zm-9.5-25.68a7.42 7.42 0 11-4.38 9.53 7.42 7.42 0 014.38-9.53zm-9.5-25.67a7.41 7.41 0 11-4.38 9.52 7.41 7.41 0 014.38-9.52z"/><path d="M1893.4 1051.26a23.27 23.27 0 01-13.75 29.9l-2.57.95a23.27 23.27 0 01-29.9-13.75l-78.85-213.13a23.27 23.27 0 0113.75-29.9l2.56-1a23.27 23.27 0 0129.91 13.75z" fill="url(#linear-gradient-35)"/><path class="cls-41" d="M1919.55 827.75l-45.88-134.16L1837.4 706l45.89 134.17a11.53 11.53 0 0014.64 7.18l14.44-5a11.52 11.52 0 007.18-14.6z"/><path class="cls-41" transform="rotate(-2.49 2093.536 642.114)" d="M1866.9 629.29h459.98v27.38H1866.9z"/><path class="cls-41" transform="translate(-27.81 91.68)" d="M1868.8 673.06h459.98v27.38H1868.8z"/><circle cx="1848.11" cy="678.35" r="54.18" transform="rotate(-80.78 1848.167 678.326)" fill="url(#linear-gradient-36)"/><circle class="cls-45" cx="1848.6" cy="678.85" r="34.87" transform="rotate(-22.5 1848.592 678.853)"/><path d="M1905.15 830.68a6 6 0 11-6-6 6 6 0 016 6z" fill="url(#linear-gradient-37)"/><path class="cls-41" d="M2468.5 2210.21l-29.57-2.63 80.18-901.22-160.17-615.88 28.72-7.47 161.48 620.85-.23 2.56-80.41 903.79z"/><path class="cls-41" d="M2517.97 2210.21l-29.57-2.63 80.18-901.19-176.26-664.11 28.69-7.61 177.6 669.15-80.64 906.39z"/><circle cx="2551.93" cy="1286.08" r="105.8" transform="rotate(-45 2551.93 1286.076)" fill="url(#linear-gradient-38)"/><circle class="cls-45" cx="2552.89" cy="1287.04" r="68.09"/><circle cx="2372.62" cy="646.68" r="74.9" fill="url(#linear-gradient-39)"/><circle class="cls-45" cx="2373.3" cy="647.36" r="48.21"/><path d="M1588.36 741.55h-20.71v-93.21c0-22.83 17.27-41.87 39.85-45.27l487.71-73.3a45.55 45.55 0 0152.31 45.23v45.72h-20.71V575c0-7.57-2.47-14.75-8.21-19.69a25 25 0 00-20.41-6l-487.49 73.33a26 26 0 00-22.34 25.7z" fill="url(#linear-gradient-40)"/><rect x="2119.9" y="600.04" width="48.32" height="124.26" rx="23.5" fill="url(#linear-gradient-41)"/><path class="cls-3" d="M1275.35 1716.72s39.18.48 64.49 4.49c77.48-12.08 800.77-79.4 800.77-79.4s-35.37-18.58-60-19.67-805.26 94.58-805.26 94.58z"/><path d="M2054.28 2710.06c-103.93-33-191-143-198-250.24-12.67-195 202.51-208.51 281-348.17 63.8-113.58 42-256.76 110.36-368.62 60.11-98.39 183.2-160.84 298.37-140 99.31 18 186.54 104.52 204.09 205.87 13.08 75.51-4.82 182.17-43.09 249.21-31.28 54.78-71.25 103.28-123.91 138.63-42.84 28.77-95.81 45.91-129.77 86.36-64.35 76.64-54.07 195.25-89.85 283.32-25 61.55-84.42 119.91-147.19 141.66a255 255 0 01-162.01 1.98z" fill="url(#linear-gradient-42)"/><g class="cls-4"><path class="cls-5" d="M2053.41 2679a3.45 3.45 0 003.51-2.41c.39-1.25 40.44-127.22 115.16-289.46 68.93-149.65 182.28-361.63 330.91-521.72a3.44 3.44 0 00-5-4.68c-149.27 160.77-263 373.48-332.16 523.61-74.88 162.62-115 288.92-115.43 290.18a3.44 3.44 0 002.24 4.32 3.49 3.49 0 00.77.16z"/></g><path d="M2266 2295.06c224.74-175.37 397.52-79.46 414.62 16.46 16.93 95-19.48 581.86-620.7 409.35a23.34 23.34 0 01-16.84-24.35c5-60.94 35.71-255.41 222.92-401.46z" fill="url(#linear-gradient-43)"/><g class="cls-4"><path class="cls-5" d="M2061.68 2701.79a3.45 3.45 0 003.12-1.57c.33-.51 34.41-52.46 108.42-118.68 68.3-61.11 185.55-147.21 356.26-210.4a3.44 3.44 0 10-2.39-6.46c-171.86 63.61-289.92 150.36-358.69 211.93-74.6 66.79-109 119.34-109.38 119.86a3.45 3.45 0 001 4.77 3.52 3.52 0 001.66.55z"/><path class="cls-5" d="M2256.12 2514.16a3.57 3.57 0 001-.08 3.44 3.44 0 002.61-4.11c-.24-1.11-23.54-111.82 76.47-176.65a3.45 3.45 0 00-3.75-5.79c-54.4 35.27-73.11 83.39-79.23 117.55-6.62 37-.48 65.21-.21 66.39a3.45 3.45 0 003.11 2.69zm184.13-10.62c22.9 1.48 50.27-1.91 81.71-14.61a3.45 3.45 0 10-2.59-6.39c-111.69 45.15-171-30.23-171.55-31a3.44 3.44 0 10-5.47 4.18c.63.83 15.89 20.52 45.78 34.57a143.6 143.6 0 0052.12 13.25zm-188.87 144.3c22.9 1.48 50.27-1.9 81.71-14.61a3.45 3.45 0 10-2.59-6.39c-111.69 45.15-171-30.23-171.55-31a3.44 3.44 0 10-5.47 4.18c.63.84 15.89 20.52 45.78 34.58a143.81 143.81 0 0052.12 13.24z"/></g><circle class="cls-5" cx="685.86" cy="545.19" r="378.41" transform="rotate(-45 685.858 545.198)"/><circle cx="685.86" cy="545.19" r="336.14" transform="rotate(-45 685.858 545.198)" fill="url(#linear-gradient-44)"/><path class="cls-5" d="M686.37 653.72c37.24-.53 67.61-29.32 67.58-64l-.21-231.09c0-34.65-30.46-62.93-67.7-62.81s-67.9 28.69-67.87 63.49l.22 232.08c.03 34.82 30.66 62.86 67.98 62.33z"/><path class="cls-5" d="M793.56 542.37c-6 .06-10.87 4.66-10.86 10.28v43.29c0 49.54-43.1 90.5-96.34 91.31-53.41.82-97-39.06-97.09-88.9V554.8c0-5.65-4.94-10.18-11-10.11s-11 4.7-11 10.35v43.58c.05 57.71 47.75 104.47 108.19 108.69l.06 66.17-36.25.65c-6.07.11-11 4.77-11 10.41s4.93 10.13 11 10l94.28-1.75c6-.11 10.91-4.76 10.9-10.38s-4.89-10.09-10.92-10l-36.13.65-.04-66.06c60.12-6.12 107.17-54 107.12-111.29v-43.26c-.05-5.65-4.92-10.15-10.92-10.08z"/><path d="M2115.83 1391.58a332.86 332.86 0 01-149.37 178.23 27.17 27.17 0 01-38.09-11.81l-.69-1.43a27 27 0 0110.91-35 278.24 278.24 0 00122-342.68 27 27 0 0113.7-34l1.44-.68a27.18 27.18 0 0137 14.93 332.83 332.83 0 013.1 232.44z" fill="url(#linear-gradient-45)"/><path d="M2028.37 1360.44a240.22 240.22 0 01-101.62 125 27 27 0 01-38.38-11.65l-.11-.24a27.27 27.27 0 0110.67-34.93 186.7 186.7 0 0078.54-220.62 27.26 27.26 0 0113.81-33.8l.25-.12a27 27 0 0137.09 15.23 240.2 240.2 0 01-.25 161.13z" fill="url(#linear-gradient-46)"/><path d="M1848.09 1388.93c-5.94-12.52-1.88-27.22 9.15-35.61a92.92 92.92 0 0034-95.54c-3.25-13.48 2.89-27.43 15.41-33.38l.16-.07a27.11 27.11 0 0137.85 17.63 148.39 148.39 0 01-56 157.39 27.11 27.11 0 01-40.47-10.26z" fill="url(#linear-gradient-47)"/></g></g></g></svg>