<svg width="156" height="156" fill="none" xmlns="http://www.w3.org/2000/svg"><circle opacity=".1" cx="78" cy="78" r="78" fill="#C1C3CD"/><mask id="a" maskUnits="userSpaceOnUse" x="0" y="0" width="156" height="156"><circle cx="78" cy="78" r="78" fill="#C4C4C4"/></mask><g mask="url(#a)"><path opacity=".5" d="M106.028 104.795l-51.34 29.535 55.98 32.319L162 137.106l-55.972-32.311z" fill="#EAEAEA"/><path d="M80.972 149.832L25 117.513V79.189l55.972 32.312v38.331z" fill="url(#paint0_linear)"/><path d="M132.311 120.289l-51.34 29.543v-38.331l51.34-29.535v38.323z" fill="url(#paint1_linear)"/><path d="M76.34 49.646L25 79.19l55.972 32.31 51.339-29.535-55.971-32.32z" fill="#D07BEF"/><path opacity=".9" d="M76.42 50.752L26.912 79.238l53.979 31.165 49.508-28.486L76.42 50.752z" fill="url(#paint2_linear)"/><path d="M76.396 50.76L26.913 79.238l46.36 26.767h3.123V50.76z" fill="url(#paint3_linear)"/><path opacity=".5" d="M76.396 50.76L26.913 79.238l46.36 26.767h3.123V50.76z" fill="url(#paint4_linear)"/><path d="M59.062 97.798l21.829 12.605 17.358-9.99L76.42 87.816l-17.358 9.982z" fill="url(#paint5_linear)"/><path d="M132.311 81.966l-47.417-1.647-2.01 6.004-55.971-32.311 2-6.012 47.427 1.646 55.971 32.32z" fill="url(#paint6_linear)"/><path d="M28.914 48l55.98 32.32-2.01 6.003-55.971-32.311 2-6.012z" fill="#D07BEF"/></g><defs><linearGradient id="paint0_linear" x1="52.986" y1="79.189" x2="52.986" y2="149.832" gradientUnits="userSpaceOnUse"><stop stop-color="#D07BEF"/><stop offset="1" stop-color="#DCD1E0"/></linearGradient><linearGradient id="paint1_linear" x1="106.642" y1="81.966" x2="106.642" y2="149.832" gradientUnits="userSpaceOnUse"><stop stop-color="#D07BEF"/><stop offset="1" stop-color="#DCD1E0"/></linearGradient><linearGradient id="paint2_linear" x1="26.913" y1="50.752" x2="130.399" y2="50.752" gradientUnits="userSpaceOnUse"><stop stop-color="#832073"/><stop offset="1" stop-color="#9A01BB"/></linearGradient><linearGradient id="paint3_linear" x1="-353.122" y1="5021.19" x2="5481.56" y2="569.94" gradientUnits="userSpaceOnUse"><stop stop-color="#B6246E"/><stop offset="1" stop-color="#F9636B"/></linearGradient><linearGradient id="paint4_linear" x1="26.913" y1="50.76" x2="76.396" y2="50.76" gradientUnits="userSpaceOnUse"><stop stop-color="#000058"/><stop offset="1" stop-color="#9A01BB"/></linearGradient><linearGradient id="paint5_linear" x1="59.062" y1="87.816" x2="98.249" y2="87.816" gradientUnits="userSpaceOnUse"><stop stop-color="#5F1853"/><stop offset="1" stop-color="#9A01BB"/></linearGradient><linearGradient id="paint6_linear" x1="97.224" y1="82.7" x2="109.329" y2="58.491" gradientUnits="userSpaceOnUse"><stop stop-color="#D07BEF"/><stop offset="1" stop-color="#DCD1E0"/></linearGradient></defs></svg>