<svg width="101" height="100" fill="none" xmlns="http://www.w3.org/2000/svg"><rect x=".885" width="100" height="100" rx="24" fill="url(#paint0_linear)"/><path fill-rule="evenodd" clip-rule="evenodd" d="M26.905 23.134c-1.228.219-2.215.747-3.08 1.649a5.368 5.368 0 00-1.252 2.058c-.163.49-.228.84-.272 1.463-.026.37-.036 5.232-.028 14.588.011 13.389.015 14.051.081 14.397.088.459.32 1.166.504 1.532.77 1.535 2.129 2.583 3.867 2.983.246.056.498.085.75.085l7.554.011 4.25.007a3.69 3.69 0 013.684 3.69 3.684 3.684 0 01-3.684 3.684h-1.621c-3.598 0-5.401.013-5.603.041a3.824 3.824 0 00-2.611 1.624c-.235.34-.385.661-.52 1.112-.142.478-.17 1.354-.061 1.882a3.66 3.66 0 00.98 1.864c.52.542 1.131.895 1.88 1.086.224.057.454.086.684.086H50.85c15.28 0 18.836-.01 19.037-.05 1.201-.24 2.193-.99 2.715-2.052.103-.21.233-.554.288-.763.087-.333.1-.457.1-.973 0-.517-.013-.64-.1-.974-.361-1.375-1.358-2.383-2.73-2.763a2.83 2.83 0 00-.75-.102l-5.108-.01-1.806-.003a3.689 3.689 0 010-7.38l4.25-.006 7.555-.01c.252-.001.503-.03.748-.086 1.176-.27 2.014-.726 2.822-1.534.825-.824 1.31-1.738 1.551-2.925.067-.327.07-.964.07-14.835 0-13.994-.003-14.505-.072-14.874-.439-2.349-2.25-4.129-4.586-4.508-.514-.083-47.46-.078-47.928.006zm47.774 2.814a2.81 2.81 0 011.737 1.448c.295.588.271-.818.26 15.19l-.01 14.017a1.926 1.926 0 01-.109.629c-.143.404-.33.708-.63 1.02a2.723 2.723 0 01-1.041.69 1.856 1.856 0 01-.666.123l-23.199.01c-21.503.01-23.568.006-23.823-.05a3.347 3.347 0 01-.63-.237c-.618-.31-1.117-.896-1.354-1.594a1.952 1.952 0 01-.104-.628l-.01-13.941c-.009-12.556-.003-14.3.047-14.569.106-.564.495-1.218.93-1.565a2.98 2.98 0 011.362-.604c.063-.009 10.667-.014 23.563-.012 22.44.004 23.458.007 23.677.073zm-41.244 2.378c-.042.01-.17.035-.286.057-1.338.257-2.55 1.18-3.175 2.415a4.556 4.556 0 00-.238 3.534 4.579 4.579 0 002.887 2.835 4.452 4.452 0 003.409-.249 4.512 4.512 0 002.488-3.325c.089-.508.053-1.365-.077-1.863-.354-1.357-1.334-2.508-2.601-3.056-.601-.26-.98-.339-1.7-.353a8.029 8.029 0 00-.707.005zm33.617.054c-1.166.245-2.12.85-2.802 1.776-.948 1.285-1.146 2.936-.533 4.438.398.978 1.3 1.922 2.255 2.363 1.366.632 2.952.566 4.221-.176a4.558 4.558 0 002.026-5.392 4.584 4.584 0 00-2.859-2.855c-.706-.236-1.627-.298-2.308-.154zm-32.128 1.45c1.049.336 1.795 1.087 2.126 2.14.078.248.09.363.09.878 0 .667-.06.936-.313 1.42a.233.233 0 01-.356.071l-.032-.026a3.48 3.48 0 00-1.21-.606c-.221-.053-.43-.061-1.184-.05-.885.013-.926.017-1.221.12-.41.142-.772.362-1.088.66l-.124.117a.151.151 0 01-.234-.034c-.306-.523-.438-.942-.471-1.49a3.157 3.157 0 012.449-3.258c.362-.083 1.227-.05 1.568.058zm33.874 0c1.479.473 2.4 1.853 2.232 3.34-.05.437-.124.692-.309 1.062a.261.261 0 01-.402.083l-.008-.007a3.052 3.052 0 00-1.14-.584c-.426-.11-1.849-.109-2.276 0a3.03 3.03 0 00-1.379.8l-.033.035a.136.136 0 01-.21-.018 3.774 3.774 0 01-.412-.949c-.093-.356-.095-1.116-.004-1.482a3.204 3.204 0 012.315-2.32c.41-.104 1.24-.083 1.626.04zm-34.974 1.16c-.532.15-.914.704-.851 1.235A1.144 1.144 0 0034.2 33.26a1.14 1.14 0 00.774-1.919 1.156 1.156 0 00-1.151-.348zm33.813.028c-.63.205-.959.94-.692 1.553.114.263.428.553.693.64.39.13.87.023 1.173-.263.318-.299.435-.83.275-1.253-.214-.569-.858-.87-1.449-.677zm-17.57 3.855a8.305 8.305 0 00-7.01 5.627 8.183 8.183 0 000 5.203 7.965 7.965 0 002.003 3.225c.863.86 1.748 1.445 2.826 1.865 4.615 1.799 9.744-.823 11.004-5.623.202-.773.246-1.146.244-2.088-.002-.913-.04-1.25-.227-1.987a8.3 8.3 0 00-5.862-5.971c-.88-.238-2.127-.343-2.979-.25zm-14.972.262c.233.088.584.34.55.394-.038.06-.54.282-.797.352-.353.096-1.01.119-1.38.048-.294-.056-.793-.227-.87-.298-.078-.072.253-.342.585-.479.198-.081.269-.088.968-.089.648 0 .78.01.944.072zm33.92.018c.211.087.528.306.528.366 0 .045-.562.292-.841.37-.345.096-1.216.097-1.563.002-.322-.088-.696-.257-.679-.307.03-.088.376-.341.586-.428.211-.086.268-.092.988-.092.713 0 .778.006.98.09zM52.042 36.82a6.402 6.402 0 014.553 3.418 6.33 6.33 0 01.042 5.653c-.174.359-.603 1.05-.65 1.048a.977.977 0 01-.15-.19c-.184-.273-.68-.765-1.034-1.028a5.082 5.082 0 00-1.87-.874 3.32 3.32 0 00-.82-.102h-2.337c-.301 0-.602.041-.894.12-1.22.332-2.115.937-2.861 1.932-.09.12-.17.22-.177.22-.006 0-.118-.159-.247-.352a6.539 6.539 0 01-.995-2.458 7.316 7.316 0 01-.001-2.2 6.728 6.728 0 011.103-2.628c.513-.722 1.338-1.448 2.138-1.88.82-.444 1.48-.642 2.568-.77.288-.035 1.226.018 1.633.091zm-18.76 1.59a4.573 4.573 0 00-3.707 3.571 5.19 5.19 0 00-.038 1.616c.324 1.969 1.887 3.52 3.836 3.803.489.071 1.31.029 1.773-.092a4.655 4.655 0 003.068-2.617c.229-.53.325-.98.346-1.627.036-1.043-.196-1.87-.76-2.717-.249-.372-.84-.968-1.195-1.202-1.003-.663-2.222-.933-3.323-.736zm34.002-.024a4.533 4.533 0 00-2.653 1.387 5.675 5.675 0 00-.58.722 4.54 4.54 0 00.198 5.09 4.521 4.521 0 003.65 1.852 4.43 4.43 0 003.305-1.417 4.426 4.426 0 001.251-3.128 4.489 4.489 0 00-1.72-3.557c-.524-.418-1.058-.678-1.762-.86-.408-.106-1.29-.152-1.689-.089zm-16.807.686a2.647 2.647 0 00-1.914 1.415c-.098.2-.204.482-.235.63a2.62 2.62 0 00.706 2.384c.325.325.596.499.989.636.985.342 1.97.113 2.718-.633.526-.524.76-1.09.762-1.837a2.475 2.475 0 00-.678-1.756c-.375-.405-.78-.653-1.268-.78-.292-.076-.827-.105-1.08-.059zm-15.495.836a3.176 3.176 0 012.05 2.048c.095.28.104.358.105.917.003.684-.05.929-.308 1.442l-.042.084a.16.16 0 01-.244.051c-.474-.389-.883-.599-1.365-.7-.348-.075-1.688-.074-2.036 0-.53.112-.991.353-1.408.737l-.062.058a.22.22 0 01-.337-.048 3.136 3.136 0 01-.428-1.788c.029-.484.1-.746.33-1.21a3.021 3.021 0 011.309-1.358c.586-.306.928-.384 1.596-.364.404.012.533.032.84.131zm33.74-.052c.582.156 1.247.592 1.632 1.07.213.264.491.789.577 1.089.219.767.113 1.75-.257 2.382a.173.173 0 01-.26.046l-.095-.079a3.164 3.164 0 00-1.025-.558c-.237-.077-.363-.088-1.126-.102-.668-.012-.92-.003-1.134.042a2.862 2.862 0 00-1.42.74c-.291.276-.255.29-.5-.185-.239-.456-.317-.799-.32-1.39-.003-.564.055-.852.265-1.311.436-.953 1.288-1.602 2.383-1.816.19-.036 1.054.012 1.28.072zm-35.107 1.281c-.427.214-.637.553-.637 1.03 0 .476.21.815.637 1.029.19.095.28.116.488.116.14 0 .338-.028.44-.063.264-.09.559-.39.663-.673a1.123 1.123 0 00-.28-1.234c-.236-.233-.464-.321-.823-.321a.887.887 0 00-.488.116zm33.873 0c-.399.2-.634.581-.634 1.03 0 .448.235.83.634 1.029.19.095.28.116.488.116.372 0 .591-.088.844-.34.245-.246.34-.472.34-.805 0-.334-.095-.56-.34-.805-.252-.253-.472-.341-.844-.341a.888.888 0 00-.488.117zm-32.291 4.097c.129.06.288.164.354.233.06.06.04.16-.036.196l-.14.065a4.829 4.829 0 01-.508.2c-.287.088-1.043.12-1.388.059-.288-.05-.847-.247-.887-.312-.054-.087.325-.378.646-.495.173-.064.29-.072.96-.063.75.009.77.011.999.117zm33.722-.067c.188.061.588.312.613.384.015.046-.486.286-.791.378-.128.04-.406.072-.707.084-.55.021-.946-.046-1.37-.234-.214-.095-.217-.098-.16-.186.096-.146.45-.371.71-.45.052-.016.415-.03.806-.033.551-.002.754.01.899.057zm-16.493 1.49c.806.166 1.554.67 2.002 1.351.218.332.249.271-.308.601-1 .592-2.015.866-3.213.867-.848 0-1.514-.115-2.235-.385-.497-.187-1.393-.67-1.393-.751 0-.085.303-.52.527-.758a3.242 3.242 0 011.63-.922c.398-.085 2.58-.087 2.99-.003zM33.461 48.43a4.698 4.698 0 00-2.174.896c-.345.26-.878.844-1.114 1.223-.982 1.572-.898 3.632.207 5.104 1.34 1.785 3.71 2.35 5.69 1.359a4.008 4.008 0 001.084-.77 4.506 4.506 0 001.362-2.523c.086-.462.059-1.396-.054-1.814a4.636 4.636 0 00-.378-1.012 4.566 4.566 0 00-3.166-2.407c-.358-.074-1.122-.104-1.457-.056zm33.776.019a4.59 4.59 0 00-3.36 2.418 4.516 4.516 0 00.412 4.821A4.47 4.47 0 0067.9 57.49a4.518 4.518 0 004.224-2.821 4.532 4.532 0 00-.974-4.901 4.505 4.505 0 00-2.352-1.28c-.398-.086-1.157-.104-1.56-.038zM34.79 49.9c.724.176 1.418.67 1.868 1.33.534.782.657 1.943.303 2.852-.087.22-.255.534-.287.534-.01 0-.116-.087-.235-.193-.246-.22-.784-.5-1.152-.6-.205-.054-.408-.066-1.164-.065-.9.002-.923.004-1.242.109a3.849 3.849 0 00-.534.223c-.246.136-.654.452-.763.591-.104.132-.146.091-.36-.345-.254-.518-.306-.75-.307-1.381 0-.44.015-.587.085-.833a3.198 3.198 0 011.992-2.135 3.39 3.39 0 011.795-.087zm33.923.016c1.082.28 1.953 1.163 2.245 2.275.112.425.112 1.103 0 1.525-.083.316-.286.797-.364.861-.032.026-.105-.013-.242-.13a2.973 2.973 0 00-1.002-.564 2.255 2.255 0 00-.743-.126h-1.143a2.27 2.27 0 00-.747.126 2.962 2.962 0 00-1.12.68l-.14.14a.102.102 0 01-.154-.011c-.129-.171-.34-.638-.426-.941-.12-.427-.122-1.17-.003-1.585.253-.882.766-1.54 1.537-1.972a3.777 3.777 0 011.024-.351c.318-.05.938-.015 1.278.073zm-35.019 1.227a1.27 1.27 0 00-.62.59c-.125.26-.132.686-.015.94.116.253.33.474.579.595a.888.888 0 00.483.103c.36-.002.612-.113.854-.378a1.142 1.142 0 00-.303-1.793 1.25 1.25 0 00-.978-.057zm33.91-.017c-.236.087-.554.393-.66.635-.187.43-.088.938.25 1.276a.908.908 0 00.474.282c.318.097.52.083.83-.058.708-.32.885-1.271.343-1.847-.282-.3-.846-.432-1.237-.288zm-32.392 4.166c.136.067.295.171.353.232a.116.116 0 01-.028.183l-.048.026c-.794.432-1.965.466-2.733.08-.164-.083-.178-.1-.134-.162.126-.179.472-.393.746-.46.079-.02.47-.033.87-.029l.45.005c.182.002.361.045.524.125zm33.874 0a1.6 1.6 0 01.358.237.116.116 0 01-.034.185l-.138.065c-.81.384-1.813.404-2.59.054l-.074-.033a.133.133 0 01-.041-.214c.072-.075.207-.181.3-.236.293-.173.458-.198 1.245-.189l.45.006c.182.002.36.045.524.125zM56.024 65.996a3.284 3.284 0 01-3.285 3.285h-3.666a3.284 3.284 0 010-6.568h3.667a3.284 3.284 0 013.284 3.283zM69.649 72.2c.371.19.541.484.541.939 0 .45-.174.75-.541.932a.938.938 0 01-.418.099H50.898c-16.115 0-18.571-.007-18.686-.055a.987.987 0 01-.499-.451c-.098-.177-.111-.238-.111-.525 0-.27.016-.356.095-.51a.937.937 0 01.478-.45c.147-.067.834-.07 18.723-.07l18.368-.001a.84.84 0 01.383.092z" fill="#fff"/><defs><linearGradient id="paint0_linear" x1="30.552" y1="-41.858" x2="107.74" y2="54.633" gradientUnits="userSpaceOnUse"><stop stop-color="#C41CD4"/><stop offset="1" stop-color="#7F16A7"/></linearGradient></defs></svg>