<svg width="431" height="431" fill="none" xmlns="http://www.w3.org/2000/svg"><mask id="a" maskUnits="userSpaceOnUse" x="0" y="0" width="431" height="431"><path d="M430.2 215c0 26.4-4.8 51.7-13.5 75-6.2 16.9-14.6 32.7-24.6 47.3l-.2.2c-19.4 28-45.4 51.2-75.6 67.3-4.3 2.3-8.8 4.5-13.4 6.5-16.5 7.4-34 12.7-52.3 15.8-3 .5-6 .9-9 1.3-8.7 1.1-17.5 1.7-26.5 1.7-23.8 0-46.6-3.8-68-11-1.4-.5-2.8-.9-4.1-1.4-.7-.2-1.4-.5-2.2-.8-14-5.1-27.3-11.7-39.8-19.6-2.6-1.6-5.2-3.3-7.7-5.1-23.9-16.4-44.2-37.5-59.8-62.1-.4-.5-.7-1.1-1.1-1.7-8.4-13.5-15.3-28-20.6-43.2-.3-1-.6-1.9-1-2.8-.6-1.9-1.2-3.7-1.7-5.6-2.6-8.6-4.7-17.6-6.2-26.6C1 238.8 0 227 0 215 0 96.2 96.3 0 215 0c118.9 0 215.2 96.2 215.2 215z" fill="#ECF0F3"/></mask><g mask="url(#a)"><path d="M430.2 215c0 26.4-4.8 51.7-13.5 75-6.2 16.9-14.6 32.7-24.6 47.3l-.2.2c-19.4 28-45.4 51.2-75.6 67.3-4.3 2.3-8.8 4.5-13.4 6.5-16.5 7.4-34 12.7-52.3 15.8-3 .5-6 .9-9 1.3-8.7 1.1-17.5 1.7-26.5 1.7-23.8 0-46.6-3.8-68-11-1.4-.5-2.8-.9-4.1-1.4-.7-.2-1.4-.5-2.2-.8-14-5.1-27.3-11.7-39.8-19.6-2.6-1.6-5.2-3.3-7.7-5.1-23.9-16.4-44.2-37.5-59.8-62.1-.4-.5-.7-1.1-1.1-1.7-8.4-13.5-15.3-28-20.6-43.2-.3-1-.6-1.9-1-2.8-.6-1.9-1.2-3.7-1.7-5.6-2.6-8.6-4.7-17.6-6.2-26.6C1 238.8 0 227 0 215 0 96.2 96.3 0 215 0c118.9 0 215.2 96.2 215.2 215z" fill="#C1C3CD"/><circle cx="214.5" cy="467.5" r="212.5" transform="rotate(1.065 214.5 467.5)" fill="#fff"/><circle cx="215" cy="172" r="104" fill="#fff" stroke="#C1C3CD" stroke-width="30"/></g></svg>