<svg width="100" height="100" fill="none" xmlns="http://www.w3.org/2000/svg"><rect width="100" height="100" rx="24" fill="url(#paint0_linear)"/><path fill-rule="evenodd" clip-rule="evenodd" d="M59.921 25.175c-.42.102-.886.462-1.073.83a1.635 1.635 0 001.452 2.39c.925 0 1.633-.71 1.635-1.64 0-.452-.173-.84-.528-1.179a1.589 1.589 0 00-1.486-.401zm-16.694 1.678a4.294 4.294 0 00-3.079 2.285c-.364.73-.542 1.688-.41 2.21.108.427.413.767.828.924.17.064.26.075.51.064.368-.017.623-.126.866-.37.245-.245.34-.477.392-.952.054-.496.174-.78.452-1.075.197-.208.369-.325.635-.43.15-.06.543-.065 6.982-.082l6.823-.018.223-.103a1.44 1.44 0 00.684-.722c.106-.28.106-.665.001-.942a1.585 1.585 0 00-.536-.652c-.327-.206.108-.195-7.3-.191-5.717.003-6.834.011-7.07.054zm19.99.016a1.448 1.448 0 00-.606.441c-.263.331-.34.866-.182 1.27a1.6 1.6 0 00.538.652c.326.206-.093.195 7.161.195 4.308 0 6.72.012 6.844.036.643.12 1.191.711 1.277 1.378.045.347.041 19.805-.004 20.117a1.636 1.636 0 01-.727 1.139c-.25.16-.458.223-.873.262-.426.04-.673.144-.912.384a1.31 1.31 0 00.38 2.12c.292.138.653.163 1.166.082 1.879-.298 3.308-1.737 3.58-3.604.05-.342.054-1.475.044-10.642-.01-9.527-.016-10.276-.072-10.501-.226-.906-.548-1.501-1.143-2.117a4.335 4.335 0 00-1.832-1.12c-.595-.17-.365-.166-7.636-.163-6.625.003-6.816.005-7.003.071zm-9.346 4.321a1.532 1.532 0 00-.744.457c-.235.244-.337.421-.414.72a1.643 1.643 0 001.173 1.99 2.1 2.1 0 00.436.048c.705 0 1.303-.441 1.537-1.138.065-.193.075-.287.062-.574-.014-.303-.032-.375-.146-.616a1.644 1.644 0 00-1.904-.887zm-16.685 1.672a4.342 4.342 0 00-1.761.764 4.306 4.306 0 00-1.711 3.03c-.047.442-.01.712.133.996.349.688 1.285.919 1.913.472.37-.264.53-.58.584-1.16.042-.442.165-.728.437-1.016.196-.208.368-.324.634-.43.15-.06.544-.065 6.983-.082l6.824-.017.236-.117c.545-.268.853-.863.738-1.422a1.332 1.332 0 00-.729-.953l-.211-.104-6.895-.006c-5.847-.005-6.937.002-7.175.045zm20.061-.003c-.333.104-.666.413-.807.75a1.41 1.41 0 00.072 1.167c.121.207.38.436.62.548l.2.095 6.842.017c6.161.016 6.856.024 6.989.075.392.151.73.437.91.771.214.394.202-.24.203 10.587 0 6.2-.013 9.999-.034 10.13-.077.468-.409.94-.81 1.15-.279.147-.397.18-.8.22-.42.041-.665.143-.892.37a1.304 1.304 0 00-.058 1.812c.32.35.679.477 1.241.439a4.262 4.262 0 003.932-3.614c.043-.287.051-1.859.051-10.49 0-11.246.017-10.45-.233-11.197-.487-1.456-1.679-2.5-3.211-2.812-.346-.07-.469-.072-7.205-.07-5.706.002-6.88.011-7.01.052zm-9.204 4.232a1.668 1.668 0 00-1.176 1.222 1.869 1.869 0 00-.027.489c.016.244.042.345.147.567a1.629 1.629 0 002.629.462 1.64 1.64 0 00.163-2.127 1.799 1.799 0 00-.735-.562c-.268-.102-.736-.126-1-.051zm-16.75 1.687c-1.29.273-2.36 1.068-2.95 2.192-.277.528-.488 1.359-.489 1.921 0 .768.582 1.364 1.333 1.364.38 0 .697-.145.97-.44.21-.229.29-.437.333-.858.02-.196.066-.444.104-.551.159-.455.54-.825 1.043-1.009.078-.029 2.019-.045 6.914-.058l6.805-.018.203-.082a1.33 1.33 0 00.676-.64c.108-.22.117-.262.116-.593 0-.29-.014-.387-.078-.525a1.646 1.646 0 00-.646-.657l-.2-.098-6.912-.007c-6.596-.006-6.926-.004-7.222.059zm20.118-.014c-.36.11-.695.435-.832.806-.096.26-.09.653.017.926.11.287.398.59.685.722l.224.103 6.84.018 6.842.018.204.082c.413.167.721.472.923.914l.081.177v20.555l-.122.248a1.734 1.734 0 01-1.015.875c-.118.04-1.948.051-10.59.066l-10.449.018-.202.095c-.519.243-.837.845-.737 1.394.055.307.163.511.387.737.135.136.264.226.41.284l.213.086h10.52c9.927 0 10.535-.003 10.81-.063 1.734-.374 2.943-1.566 3.364-3.315l.076-.32V52.825c0-9.89-.003-10.38-.064-10.668-.186-.87-.524-1.52-1.106-2.129a4.127 4.127 0 00-2.256-1.248c-.346-.071-.469-.072-7.205-.07-5.832.002-6.878.01-7.018.053zm-.297 5.586a5.786 5.786 0 00-2.379.89c-.455.301-1.16.999-1.465 1.45-.426.63-.743 1.4-.885 2.152-.089.467-.089 1.418 0 1.885.142.75.46 1.521.885 2.151.305.452 1.01 1.15 1.465 1.451a5.89 5.89 0 001.97.824c.36.079 1.392.112 1.781.057 2.648-.376 4.629-2.543 4.748-5.194.124-2.768-1.86-5.183-4.628-5.637-.292-.048-1.2-.066-1.492-.029zm-20.186.286c-.848.079-1.93.353-2.772.702-1.8.746-3.44 2.147-4.476 3.824a9.598 9.598 0 001.087 11.508 9.565 9.565 0 0011.345 2.122 9.442 9.442 0 002.316-1.619c1.548-1.476 2.506-3.27 2.883-5.397.122-.691.155-1.909.07-2.639a9.496 9.496 0 00-2.76-5.717 9.496 9.496 0 00-5.649-2.755c-.407-.05-1.631-.068-2.044-.03zm16.765 11.213a3.882 3.882 0 00-1.06.316c-1.074.503-1.79 1.43-2.045 2.651-.065.309-.065 1.804 0 1.987.062.176.26.397.446.496l.145.078h13.184l.142-.077c.168-.091.34-.265.432-.44.06-.111.066-.21.063-1.03-.003-.862-.007-.924-.097-1.263a4.6 4.6 0 00-.27-.71c-.478-.97-1.295-1.636-2.366-1.93l-.356-.096-3.998-.006c-2.199-.003-4.098.008-4.22.024zM25.1 64.63c-2.313.166-4.385 1.586-5.399 3.697-.549 1.145-.678 1.989-.653 4.26.013 1.196.016 1.24.098 1.448.125.318.473.656.784.759l.232.076 11.745-.009 11.745-.009.235-.115a1.35 1.35 0 00.629-.643l.094-.202V72.15c0-1.879-.004-1.93-.2-2.685a6.525 6.525 0 00-5.86-4.835c-.547-.041-12.87-.042-13.45 0z" fill="#fff"/><defs><linearGradient id="paint0_linear" x1="29.668" y1="-41.858" x2="106.855" y2="54.633" gradientUnits="userSpaceOnUse"><stop stop-color="#C41CD4"/><stop offset="1" stop-color="#7F16A7"/></linearGradient></defs></svg>