<svg width="24" height="24" fill="none" xmlns="http://www.w3.org/2000/svg"><rect x="4" y="4" width="7" height="7" rx="1.5" fill="#7F16A7"/><path opacity=".3" fill-rule="evenodd" clip-rule="evenodd" d="M13 5.5A1.5 1.5 0 0114.5 4h4A1.5 1.5 0 0120 5.5v4a1.5 1.5 0 01-1.5 1.5h-4A1.5 1.5 0 0113 9.5v-4zm-9 9A1.5 1.5 0 015.5 13h4a1.5 1.5 0 011.5 1.5v4A1.5 1.5 0 019.5 20h-4A1.5 1.5 0 014 18.5v-4zM14.5 13a1.5 1.5 0 00-1.5 1.5v4a1.5 1.5 0 001.5 1.5h4a1.5 1.5 0 001.5-1.5v-4a1.5 1.5 0 00-1.5-1.5h-4z" fill="#7F16A7"/></svg>