<svg width="24" height="24" fill="none" xmlns="http://www.w3.org/2000/svg"><path opacity=".3" d="M14 13a1 1 0 100-2H4a1 1 0 100 2h10z" fill="#fff"/><path opacity=".3" d="M10.006 7a1 1 0 11-2 0V6a4 4 0 014-4h5.996A4 4 0 0122 6v12a4 4 0 01-3.998 4h-6.004A4 4 0 018 18v-1a1 1 0 112 0v1a2 2 0 001.998 2h6.004A2 2 0 0020 18V6a2 2 0 00-2-2h-5.996a2 2 0 00-1.999 2v1z" fill="#fff"/><path d="M12.293 9.707a1 1 0 011.414-1.414l3 3a1 1 0 010 1.414l-3 3a1 1 0 01-1.414-1.414L14.586 12l-2.293-2.293z" fill="#fff"/></svg>