<svg width="101" height="100" fill="none" xmlns="http://www.w3.org/2000/svg"><rect x=".371" width="100" height="100" rx="24" fill="url(#paint0_linear)"/><path fill-rule="evenodd" clip-rule="evenodd" d="M55.506 26.648a2.064 2.064 0 00-1.542 1.16c-.7 1.518.714 3.228 2.322 2.809 1.279-.333 1.914-1.714 1.324-2.878-.384-.757-1.29-1.227-2.104-1.09zm-20.554 2.065c-.755.088-1.693.44-2.335.876-.357.242-.994.856-1.272 1.224-.62.823-1.013 1.988-1.016 3.007-.002.605.099.863.49 1.254.236.236.34.306.572.384.694.233 1.433.018 1.843-.538.229-.31.308-.542.352-1.03.06-.66.217-1.007.633-1.4a2.5 2.5 0 01.542-.373 1.48 1.48 0 01.625-.141l8.118-.021 8.163-.021c.188 0 .373-.037.547-.107.186-.075.342-.185.53-.373.35-.349.472-.648.472-1.145s-.123-.796-.471-1.144a1.542 1.542 0 00-.53-.373 1.469 1.469 0 00-.548-.106l-8.053-.006c-4.585-.003-8.483.012-8.662.033zm24.623.018c-.5.136-.874.44-1.094.888-.11.225-.124.298-.124.69 0 .392.013.466.123.69.232.471.65.798 1.163.907.167.035 2.54.049 8.476.049 7.967 0 8.252.003 8.51.083.68.212 1.211.793 1.359 1.488.07.327.07 24.826 0 25.16-.144.695-.613 1.214-1.373 1.52-.165.067-1.222.075-13.124.095l-12.715.021c-.15 0-.3.033-.438.097-.29.134-.667.505-.811.798-.108.22-.121.295-.121.686 0 .407.01.46.142.73.17.343.445.612.794.776.164.077.343.117.524.117h12.8c12.604 0 13.09-.003 13.428-.082 1.07-.25 1.931-.717 2.658-1.442a5.325 5.325 0 001.487-2.956c.035-.252.045-3.86.036-13.16l-.012-12.37c0-.294-.041-.585-.12-.867-.276-.978-.706-1.723-1.392-2.41-.76-.762-1.556-1.198-2.657-1.457-.394-.093-.412-.093-8.842-.103-7.2-.009-8.48-.001-8.677.052zm-.845 6.998c-2.516.444-4.618 2.332-5.323 4.782-.329 1.14-.34 2.513-.03 3.642a6.537 6.537 0 001.62 2.864c.844.88 1.677 1.412 2.803 1.788.782.261 1.213.326 2.137.324.873-.003 1.351-.078 2.105-.33a6.812 6.812 0 004.15-3.929 6.755 6.755 0 00-1.397-7.13 6.707 6.707 0 00-3.824-2.029c-.57-.097-1.635-.089-2.24.018zm-24.909.33c-3.931.506-7.306 2.855-9.114 6.344-.643 1.24-1.038 2.51-1.239 3.988-.1.739-.1 2.19 0 2.94a12.193 12.193 0 002.384 5.76c.48.631 1.59 1.73 2.229 2.208a12.01 12.01 0 005.836 2.35c.643.08 2.163.068 2.83-.023a12.079 12.079 0 005.923-2.519c.508-.404 1.41-1.302 1.815-1.809a12.144 12.144 0 002.243-4.442c.26-.994.337-1.56.362-2.697.026-1.157-.016-1.694-.207-2.645-.57-2.842-2.13-5.33-4.462-7.118a11.938 11.938 0 00-5.8-2.34c-.678-.079-2.175-.077-2.8.003zm20.913 13.843a4.504 4.504 0 00-3.687 3.532c-.067.32-.082.59-.082 1.426 0 .992.003 1.04.103 1.253.057.123.18.286.274.364.347.287-.196.27 8.551.27 8.98 0 8.254.029 8.629-.346.325-.325.36-.507.332-1.714-.025-1.079-.073-1.37-.338-2.057-.255-.66-.868-1.45-1.473-1.896a4.73 4.73 0 00-1.157-.614c-.73-.267-.635-.263-6.032-.257-2.705.002-5.01.02-5.12.039zM26.94 60.742c-2.054.133-4.073 1.123-5.451 2.674-1.18 1.328-1.87 2.942-2.03 4.752-.056.63-.058 3.591-.002 3.883.102.538.508 1.048.989 1.242.174.07.36.106.546.106l14.15.01c16.043.013 14.732.038 15.205-.285.293-.2.491-.453.616-.786.093-.248.094-.287.076-2.448-.017-2.038-.025-2.227-.112-2.632-.354-1.65-1.08-3.015-2.202-4.14-1.437-1.443-3.212-2.246-5.255-2.379-.769-.05-15.755-.047-16.53.004z" fill="#fff"/><defs><linearGradient id="paint0_linear" x1="30.038" y1="-41.858" x2="107.226" y2="54.633" gradientUnits="userSpaceOnUse"><stop stop-color="#C41CD4"/><stop offset="1" stop-color="#7F16A7"/></linearGradient></defs></svg>