<svg width="84" height="84" fill="none" xmlns="http://www.w3.org/2000/svg"><path fill-rule="evenodd" clip-rule="evenodd" d="M49.393 24.522A3.527 3.527 0 0049 24.5H35a3.43 3.43 0 00-.394.022l-8.89-8.569a3.5 3.5 0 01-.096-4.943L29.468 7h25.064l3.848 4.01a3.5 3.5 0 01-.097 4.943l-8.89 8.569z" fill="#7F16A7"/><path opacity=".3" fill-rule="evenodd" clip-rule="evenodd" d="M48.174 31.5L54.2 63.523a3.5 3.5 0 01-.914 3.07l-8.76 9.128a3.5 3.5 0 01-5.05 0l-8.759-9.127a3.5 3.5 0 01-.914-3.071L35.826 31.5h12.348z" fill="#7F16A7"/></svg>