<svg xmlns="http://www.w3.org/2000/svg" xmlns:xlink="http://www.w3.org/1999/xlink" viewBox="0 0 909.94 891"><defs><linearGradient id="linear-gradient" x1="543.05" y1="298.49" x2="162.99" y2="997.6" gradientUnits="userSpaceOnUse"><stop offset="0" stop-color="#519b4c" stop-opacity="0"/><stop offset="1" stop-color="#519b4c"/></linearGradient><linearGradient id="linear-gradient-2" x1="463.88" y1="721.98" x2="465.48" y2="919.29" xlink:href="#linear-gradient"/><linearGradient id="linear-gradient-3" x1="650.1" y1="448.39" x2="731.91" y2="1112.5" xlink:href="#linear-gradient"/><linearGradient id="linear-gradient-4" x1="830.66" y1="274.93" x2="399.56" y2="648.61" gradientUnits="userSpaceOnUse"><stop offset="0" stop-color="#3f843f"/><stop offset="1" stop-color="#519b4c"/></linearGradient><linearGradient id="linear-gradient-5" x1="640.27" y1="585.64" x2="640.27" y2="409.32" gradientUnits="userSpaceOnUse"><stop offset="0" stop-color="#e5e3e3"/><stop offset="1" stop-color="#e5e3e3" stop-opacity="0"/></linearGradient><linearGradient id="linear-gradient-6" x1="612.82" y1="737.56" x2="603.19" y2="910.8" xlink:href="#linear-gradient"/><linearGradient id="linear-gradient-7" x1="474.12" y1="542.33" x2="470.06" y2="741.21" xlink:href="#linear-gradient-4"/><linearGradient id="linear-gradient-8" x1="136.35" y1="439.97" x2="472.3" y2="439.97" xlink:href="#linear-gradient-4"/><linearGradient id="linear-gradient-9" x1="304.32" y1="585.64" x2="304.32" y2="409.32" xlink:href="#linear-gradient-5"/><linearGradient id="linear-gradient-10" x1="477.15" y1="493.74" x2="477.15" y2="613.65" gradientTransform="matrix(1.01 0 0 1.07 -7.72 12.35)" gradientUnits="userSpaceOnUse"><stop offset="0" stop-color="#f9ec31"/><stop offset=".21" stop-color="#f9de2e"/><stop offset=".61" stop-color="#f7bb27"/><stop offset="1" stop-color="#f6921e"/></linearGradient><linearGradient id="linear-gradient-11" x1="566.01" y1="657.21" x2="464.76" y2="575.47" xlink:href="#linear-gradient-10"/><linearGradient id="linear-gradient-13" x1="284.69" y1="234.38" x2="284.69" y2="110.8" gradientUnits="userSpaceOnUse"><stop offset=".2" stop-color="#fff" stop-opacity="0"/><stop offset=".97" stop-color="#fff"/></linearGradient><linearGradient id="linear-gradient-14" x1="2053.98" y1="237.59" x2="2053.98" y2="114" gradientTransform="matrix(-1 0 0 1 2710.82 0)" xlink:href="#linear-gradient-13"/><linearGradient id="linear-gradient-15" x1="474.16" y1="530.11" x2="471.24" y2="673.28" xlink:href="#linear-gradient-10"/><linearGradient id="linear-gradient-16" x1="544.18" y1="546.37" x2="418.98" y2="589.91" gradientUnits="userSpaceOnUse"><stop offset="0" stop-color="#f9ec31" stop-opacity="0"/><stop offset=".09" stop-color="#f9e730" stop-opacity=".06"/><stop offset=".27" stop-color="#f8da2d" stop-opacity=".2"/><stop offset=".51" stop-color="#f8c529" stop-opacity=".44"/><stop offset=".8" stop-color="#f7a823" stop-opacity=".76"/><stop offset="1" stop-color="#f6921e"/></linearGradient><linearGradient id="linear-gradient-17" x1="493.03" y1="655.53" x2="468.87" y2="479.39" xlink:href="#linear-gradient-13"/><radialGradient id="radial-gradient" cx="666.88" cy="746.88" r="295.61" gradientTransform="matrix(1.5 0 0 .28 -545.64 587.16)" gradientUnits="userSpaceOnUse"><stop offset=".12" stop-color="#515252" stop-opacity=".7"/><stop offset=".97" stop-color="#515252" stop-opacity="0"/></radialGradient><style>.cls-11,.cls-13,.cls-4{fill-rule:evenodd}.cls-4{fill:#60bb55}.cls-11{fill:#fff}.cls-13{fill:#303030}</style></defs><g style="isolation:isolate"><g id="Layer_2" data-name="Layer 2"><g id="Mascot"><ellipse cx="454.97" cy="796.91" rx="454.97" ry="94.09" fill="url(#radial-gradient)"/><path d="M661.65 169.77A189.63 189.63 0 00472.68 0C374.6.19 294 74.21 283 169.3l-2.07 22 59.08 3.6 1.13-21.8c8.87-68.68 60.1-114.71 131.4-114.85s123.79 46.57 131.52 116l3.67 29.37 57.47-4.11z" fill-rule="evenodd" fill="#414242"/><path class="cls-4" d="M126.62 160.87a23.36 23.36 0 00-23.13 23.4l.65 340.59.12 60.89v16.27l.4 210.43a23.37 23.37 0 0023.42 23.32l210.39-.4 36.74-.07 233.19-.45C737 834.61 842 729.17 841.8 600.61v-16.27L841 202a42.57 42.57 0 00-42.42-42.49c-42.85-.16-86.7-.24-129.22 2.24l-53 4.67C569.05 172.29 521.24 183 483 202.28a23.48 23.48 0 01-21.46-.05c-40.05-20.84-83.59-31.6-133.23-37.07l-53-3.92c-49.73-2.24-100.56-.86-148.69-.37z"/><path d="M150.1 160.58a47.19 47.19 0 00-46.56 47.29l.6 317 .12 60.89v16.27l.4 210.05a23.74 23.74 0 0023.79 23.7l210-.4 36.74-.07 233.19-.45C737 834.61 842 729.17 841.8 600.61v-16.27L841 202.4a42.94 42.94 0 00-42.79-42.87c-42.74-.16-86.45-.23-128.85 2.24l-53 4.67c-47.26 5.85-95 16.49-133.16 35.75a23.9 23.9 0 01-21.81-.05c-40-20.78-83.49-31.52-133.06-37l-53-3.92c-41.73-1.84-84.22-1.22-125.23-.64z" style="mix-blend-mode:multiply" fill="url(#linear-gradient)" fill-rule="evenodd"/><path d="M170.86 835.69l167.64-.32 36.74-.07 233.19-.45a232.54 232.54 0 00149.86-55.09C710.61 669.5 600.74 592.48 473 592.73c-148 .28-271.55 104.19-302.16 243" fill="#84c468" fill-rule="evenodd"/><path d="M170.86 835.69l167.64-.32 36.74-.07 233.19-.45a232.54 232.54 0 00149.86-55.09C710.61 669.5 600.74 592.48 473 592.73c-148 .28-271.55 104.19-302.16 243" style="mix-blend-mode:multiply" fill="url(#linear-gradient-2)" fill-rule="evenodd"/><path d="M473.49 835.11l137.66-2.29a230.07 230.07 0 00147.15-53.05c51.25-42.51 83.64-106.79 83.5-179.16v-16.27l-.8-405.57a19.2 19.2 0 00-19.14-19.17c-50.12-.11-102.21-.76-152.45 2.17l-53 4.67C564.5 172.86 512 185.07 472.3 208.1z" fill="#4f9d4d" fill-rule="evenodd"/><path d="M473.49 835.11l137.66-2.29a230.07 230.07 0 00147.15-53.05c51.25-42.51 83.64-106.79 83.5-179.16v-16.27l-.8-405.57a19.2 19.2 0 00-19.14-19.17c-50.12-.11-102.21-.76-152.45 2.17l-53 4.67C564.5 172.86 512 185.07 472.3 208.1z" style="mix-blend-mode:multiply" fill="url(#linear-gradient-3)" fill-rule="evenodd"/><path d="M639.94 272c92.76-.18 168.13 74.91 168.3 167.64A168 168 0 11639.94 272" style="mix-blend-mode:multiply" fill="url(#linear-gradient-4)" opacity=".7" fill-rule="evenodd"/><path class="cls-11" d="M640 294.07a145.9 145.9 0 11-145.64 146.17A145.93 145.93 0 01640 294.07"/><path d="M781.18 399.93a146.82 146.82 0 01-282 .63 146.78 146.78 0 10282-.63z" fill="url(#linear-gradient-5)" fill-rule="evenodd"/><path class="cls-13" d="M623.53 345.45a96.56 96.56 0 11-78.08 56A46.53 46.53 0 10618.7 346c1.59-.26 3.23-.42 4.83-.59"/><path class="cls-4" d="M473.49 835.11l135.8-.26c57-.11 108.44-20.85 149-55.08-47.16-109-159.36-185.54-285.27-187z"/><path d="M473.49 835.11l135.8-.26c57-.11 108.44-20.85 149-55.08-47.16-109-159.36-185.54-285.27-187z" style="mix-blend-mode:multiply" fill="url(#linear-gradient-6)" fill-rule="evenodd"/><path d="M561.75 584.78c-15.47-57.52-72.38-62.69-87.82-63.57a15.28 15.28 0 00-3.53.06c-14.87 1.46-72.1 7.38-86 66-.35 1.89-.12 7.34-.09 9.34l.09.21s4.88 3.23 12.38 8c9.88 27.38 57.34 79.12 76.68 79.14.66 0 1.07-.05 1.77 0 16 0 59.31-46.72 72-77 7.73-5 13.18-8.75 14.27-9.76.44-3.7.94-9.2.25-12.42z" style="mix-blend-mode:multiply" fill="url(#linear-gradient-7)" opacity=".5"/><path d="M304 272a168 168 0 11-167.65 168.29A168 168 0 01304 272" style="mix-blend-mode:multiply" fill="url(#linear-gradient-8)" opacity=".7" fill-rule="evenodd"/><path class="cls-11" d="M304 294.07a145.9 145.9 0 11-145.58 146.17A145.94 145.94 0 01304 294.07"/><path d="M445.23 399.93a146.82 146.82 0 01-282 .63 146.78 146.78 0 10282-.63z" fill="url(#linear-gradient-9)" fill-rule="evenodd"/><path class="cls-13" d="M319.93 345a96.54 96.54 0 11-83.27 47.93 46.53 46.53 0 1078.41-47.82c1.6-.1 3.25-.1 4.86-.11"/><path d="M475.23 670.65c19.43 0 78.82-65.59 75.45-89.42-13.68-51.59-63.36-58.06-77-58.86a13.1 13.1 0 00-3.12 0c-13.11 1.29-63.26 9.66-75.47 62.23-4 19.82 56 86 78.34 86.06.69.04 1.1-.01 1.8-.01z" fill="url(#linear-gradient-10)" fill-rule="evenodd"/><path d="M538.55 612.59c8.09-12.35 13.18-23.9 12.13-31.36-5.5-20.74-16.82-34.18-29.28-42.9-19.18-10.38-39.19-12.56-47.47-13a15.64 15.64 0 00-3.53 0c-8 .75-28 3.69-47 14.88-12.31 9.26-23.37 23.24-28.28 44.39-1.14 5.64 2.91 15 9.79 25.59 22.31 13.25 56.37 32.25 68.2 32.25 12.18.04 43.51-16.83 65.44-29.85z" style="mix-blend-mode:multiply" fill="url(#linear-gradient-11)"/><path d="M538.55 612.59c8.09-12.35 13.18-23.9 12.13-31.36-5.5-20.74-16.82-34.18-29.28-42.9-19.18-10.38-39.19-12.56-47.47-13a15.64 15.64 0 00-3.53 0c-8 .75-28 3.69-47 14.88-12.31 9.26-23.37 23.24-28.28 44.39-1.14 5.64 2.91 15 9.79 25.59 22.31 13.25 56.37 32.25 68.2 32.25 12.18.04 43.51-16.83 65.44-29.85z" style="mix-blend-mode:multiply" fill="url(#linear-gradient-11)" opacity=".5"/><path d="M456.54 216.08c-40.06-23-83.73-34.45-134.15-40L273 172.42c-46.34-2.07-93.68-.81-138.5-.35A21.85 21.85 0 00112.84 194c155.34-27.61 343.7 22.08 343.7 22.08z" fill="url(#linear-gradient-13)" opacity=".8" fill-rule="evenodd"/><path d="M485 216.08c40.06-23 83.73-34.45 134.14-40l49.42-3.65c46.34-2.07 93.68-.81 138.5-.35A21.85 21.85 0 01828.69 194C673.35 166.39 485 216.08 485 216.08z" fill="url(#linear-gradient-14)" opacity=".8" fill-rule="evenodd"/><path d="M561.19 577.64c-15.46-55-71.82-61.89-87.26-62.73a16.32 16.32 0 00-3.53.05c-14.87 1.4-71.77 10.41-85.68 66.55a27.89 27.89 0 00-.41 5.6l.09.19s70.55 44.77 88.71 44.77c18.94 0 84.3-40.85 88.4-44.48a29.14 29.14 0 00-.32-9.95z" fill="url(#linear-gradient-15)"/><path d="M384.72 581.51a27.89 27.89 0 00-.41 5.6l.09.19s68.6 43.51 87.9 44.7c5.32-108.13-1.9-117-1.9-117-14.87 1.36-71.77 10.37-85.68 66.51z" style="mix-blend-mode:multiply" opacity=".9" fill="url(#linear-gradient-16)" fill-rule="evenodd"/><path d="M491.58 517.26a120.53 120.53 0 00-17.65-2.35 16.32 16.32 0 00-3.53.05s7.22 8.92 1.9 117c9.08-24.25 16.08-83.5 19.28-114.7z" fill="url(#linear-gradient-17)" fill-rule="evenodd"/><path class="cls-11" d="M468.18 515.2h-.41z"/></g></g></g></svg>