<svg width="101" height="100" fill="none" xmlns="http://www.w3.org/2000/svg"><rect x=".402" width="100" height="100" rx="24" fill="url(#paint0_linear)"/><path fill-rule="evenodd" clip-rule="evenodd" d="M26.745 23.095a5.716 5.716 0 00-2.378.855c-1.29.839-2.13 2.077-2.48 3.648a3.505 3.505 0 00-.082.756L21.792 42.2c-.01 10.494-.002 14.346.031 14.675a5.605 5.605 0 003.797 4.78c.828.275.053.252 8.869.265l4.328.006a3.621 3.621 0 010 7.24l-1.859.004-5.164.01c-.205.001-.41.03-.607.086-1.446.412-2.488 1.487-2.819 2.908-.053.23-.072.463-.072.895 0 .43.019.664.073.894a3.876 3.876 0 003 2.94c.338.07.943.072 19.034.072 18.091 0 18.696-.003 19.035-.073a3.876 3.876 0 003-2.94c.053-.23.072-.462.072-.893 0-.432-.02-.665-.073-.895-.33-1.421-1.372-2.496-2.819-2.908a2.232 2.232 0 00-.606-.085l-5.164-.01-1.86-.004a3.62 3.62 0 010-7.24l4.33-.007c7.474-.011 7.959-.016 8.233-.081 1.091-.26 1.961-.722 2.71-1.438a5.527 5.527 0 001.722-3.526c.032-.329.04-4.18.031-14.675l-.013-13.847c0-.254-.028-.508-.083-.756-.348-1.57-1.19-2.809-2.48-3.648a5.981 5.981 0 00-1.918-.789 3.396 3.396 0 00-.764-.087l-23.178-.005c-12.96-.003-23.686.008-23.833.026zm47.241 2.972a2.804 2.804 0 011.48.906c.097.121.246.36.329.532.294.606.273-.287.273 11.312v8.7c0 .94-.762 1.702-1.701 1.702-4.624.004-48.086-.124-48.803-.143a.849.849 0 01-.826-.849v-9.492c0-11.507-.021-10.624.273-11.23.083-.171.232-.41.33-.532.334-.416.941-.792 1.46-.904.39-.085 46.788-.086 47.185-.002zm-28.619 4.642c-.085.04-.22.14-.3.222-.29.304-.267-.273-.265 6.811.003 7.142-.02 6.597.291 6.908a.98.98 0 00.973.248c.163-.045 9.427-6.209 9.655-6.423.368-.347.387-.986.04-1.354-.135-.142-9.506-6.384-9.67-6.44-.198-.07-.545-.056-.724.028zm7.72 21.408c10.532.03 20.013.056 21.067.056 1.058 0 1.913.86 1.908 1.917l-.002.425-.01 2.013a1.956 1.956 0 01-.111.64 2.695 2.695 0 01-1.366 1.556 3.233 3.233 0 01-.605.22c-.375.076-46.755.076-47.13 0a3.23 3.23 0 01-.605-.22 2.695 2.695 0 01-1.366-1.555 1.96 1.96 0 01-.111-.641l-.01-2.09a2.398 2.398 0 012.409-2.41l2.18.011c2.53.012 13.218.047 23.751.078zm-3.267 1.359c-1.145.314-1.828 1.501-1.496 2.602.454 1.508 2.353 1.998 3.458.894.406-.407.612-.903.612-1.475 0-.883-.52-1.63-1.359-1.95-.333-.128-.89-.16-1.215-.071zm5.6 12.498a3.188 3.188 0 01-3.189 3.188h-3.656a3.188 3.188 0 110-6.376h3.656a3.188 3.188 0 013.188 3.188zm13.726 6.27c.296.177.428.432.428.826 0 .393-.132.648-.428.826a.887.887 0 01-.456.126H32.116a.886.886 0 01-.456-.126c-.296-.178-.428-.433-.428-.826 0-.394.132-.65.428-.827a.886.886 0 01.456-.126H68.69c.16 0 .318.044.456.126z" fill="#fff"/><defs><linearGradient id="paint0_linear" x1="30.07" y1="-41.858" x2="107.258" y2="54.633" gradientUnits="userSpaceOnUse"><stop stop-color="#C41CD4"/><stop offset="1" stop-color="#7F16A7"/></linearGradient></defs></svg>