<?xml version="1.0" encoding="utf-8"?>
<!-- Generator: Adobe Illustrator 24.3.0, SVG Export Plug-In . SVG Version: 6.00 Build 0)  -->
<svg version="1.1" id="Layer_1" xmlns="http://www.w3.org/2000/svg" xmlns:xlink="http://www.w3.org/1999/xlink" x="0px" y="0px"
	 viewBox="0 0 24 24" style="enable-background:new 0 0 24 24;" xml:space="preserve">
<style type="text/css">
	.st0{fill:#8510AE;}
</style>
<path class="st0" d="M18,16l-3.2-2.6c-0.3-0.3-0.8,0-0.8,0.4v1.7c0,0.3-0.2,0.5-0.5,0.5h-7C6.2,16,6,15.8,6,15.5v-7
	C6,8.2,6.2,8,6.5,8h7C13.8,8,14,8.2,14,8.5v1.7c0,0.4,0.5,0.6,0.8,0.4L18,8 M20,4H4C2.9,4,2,4.9,2,6v12c0,1.1,0.9,2,2,2h16
	c1.1,0,2-0.9,2-2V6C22,4.9,21.1,4,20,4z"/>
</svg>
