<svg width="253" height="117" viewBox="0 0 253 117" fill="none" xmlns="http://www.w3.org/2000/svg">
<mask id="mask0" mask-type="alpha" maskUnits="userSpaceOnUse" x="0" y="0" width="253" height="117">
<rect width="253" height="117" fill="#1A1A1A"/>
</mask>
<g mask="url(#mask0)">
<path d="M470.14 265.015H-33.86V-22.9846H470.14V265.015Z" fill="url(#paint0_linear)"/>
<path d="M83.3 173.485C72.46 184.685 56.21 186.645 40.47 174.395C26.9 163.835 19.36 151.545 -2.36 151.395C-85.36 150.755 -79.75 96.1453 -59.88 63.9653C-31.36 17.7653 -41.62 1.9653 -42.46 -29.3347C-43.04 -51.2047 -41.51 -69.0047 -25.71 -86.8847C-2.04 -113.665 32.86 -111.085 56 -91.7847C67.35 -82.3047 78.34 -70.1747 85.51 -63.2647C104.77 -44.7347 114.43 -41.1847 144.87 -25.7447C203.64 5.31529 201.17 60.5753 152.01 80.5653C109.91 97.6853 106.86 98.4153 99.45 132.395C96.33 146.655 95.71 160.675 83.3 173.485Z" fill="url(#paint1_linear)"/>
<path d="M394.69 106.845C422.53 50.1553 488.12 84.9353 483.04 151.105C480.92 178.585 473.42 198.815 491.68 222.505C496.2 228.385 500.13 234.715 504.34 240.835C512.12 252.155 512.19 272.835 500.15 287.775C482.73 309.445 460.8 327.315 438.05 343.315C408.3 364.255 373.31 370.385 353.5 338.555C341.95 320.015 340.14 301.175 318.65 295.235C306.09 291.775 297.46 289.125 288.73 277.965C273.14 258.015 274.27 265.375 260.81 257.775C228.47 239.505 238.81 194.985 271.52 176.275C293.33 163.815 316.46 168.835 329.52 169.275C376.78 170.795 372.14 152.845 394.69 106.845Z" fill="url(#paint2_linear)"/>
<g style="mix-blend-mode:overlay">
<path d="M121.56 386.225C116.34 358.645 132.99 332.015 156 318.225C182 302.595 204.46 296.225 209.89 265.715C211.64 255.835 214.53 241.895 219.07 232.875C235.75 199.705 274.49 209.565 303.58 210.265C330.88 210.915 348.67 195.415 376.18 173.095C376.35 172.955 433.87 99.7553 460.29 172.345C465.18 185.805 466.36 196.835 468.45 204.215C476.7 233.215 503.18 232.215 543.29 249.325C594.04 270.915 610.43 330.015 555.99 349.855C535.06 357.465 516.99 358.545 496.89 368.385C455.89 388.495 460.07 429.795 424.48 447.595C411.73 455.525 392.57 457.335 379.54 455.245C329.35 447.245 309.84 427.375 273.54 438.245C261.21 441.935 245.85 448.995 227.48 451.845C180.14 459.205 129.77 429.595 121.56 386.225Z" fill="#636363"/>
</g>
<g style="mix-blend-mode:overlay">
<path d="M-100.68 20.0153C-105.9 -7.55473 -89.25 -34.1947 -66.24 -47.9847C-40.24 -63.6147 -17.77 -69.9847 -12.35 -100.505C-10.59 -110.385 -7.7 -124.325 -3.17 -133.345C13.52 -166.565 52.26 -156.705 81.34 -155.985C108.64 -155.335 126.43 -170.825 153.94 -193.155C154.11 -193.295 211.63 -266.495 238.05 -193.895C242.95 -180.445 244.12 -169.405 246.22 -162.035C254.46 -133.035 280.94 -134.035 321.05 -116.925C371.81 -95.3047 388.19 -36.1447 333.75 -16.3547C312.83 -8.74473 294.75 -7.66473 274.66 2.17527C233.66 22.2853 237.83 63.5753 202.24 81.3753C189.5 89.3053 170.34 91.1153 157.3 89.0353C107.12 81.0353 87.6 61.1553 51.3 72.0353C38.97 75.7253 23.6 82.7853 5.24 85.6353C-42.06 92.9653 -92.46 63.3553 -100.68 20.0153Z" fill="#636363"/>
</g>
<g style="mix-blend-mode:overlay">
<g style="mix-blend-mode:overlay">
<path d="M507.14 35.8453H506.68C493.907 36.1655 481.508 40.2188 471.013 47.5048C460.517 54.7908 452.385 64.9906 447.62 76.8453C446.038 81.2316 444.686 85.6977 443.57 90.2253C441.2 99.1553 438.76 108.385 432.78 115.435C428.38 120.635 422.38 124.235 416.58 127.715C411.45 130.805 406.13 133.995 401.88 138.305C393.25 147.045 389.78 159.385 386.41 171.305C382.92 183.695 379.31 196.505 369.9 205.065C355.51 218.245 333.14 216.505 315.19 213.515L313.1 213.165C294.28 210.005 274.82 206.745 258.64 215.905C252.58 219.456 247.548 224.524 244.041 230.611C240.535 236.697 238.673 243.591 238.64 250.615C238.82 257.635 240.826 264.487 244.459 270.496C248.092 276.505 253.228 281.464 259.36 284.885L259.6 284.445C253.55 281.061 248.483 276.163 244.896 270.23C241.309 264.298 239.326 257.535 239.14 250.605C239.178 243.672 241.018 236.868 244.478 230.86C247.939 224.852 252.902 219.847 258.88 216.335C274.88 207.265 294.28 210.515 313.01 213.655L315.14 214.015C333.14 217.015 355.71 218.775 370.3 205.505C379.82 196.855 383.45 183.965 386.96 171.505C390.3 159.635 393.76 147.355 402.3 138.705C406.51 134.445 411.79 131.265 416.9 128.195C422.73 124.695 428.77 121.075 433.22 115.815C439.27 108.665 441.73 99.3853 444.11 90.4053C445.224 85.876 446.569 81.4068 448.14 77.0153C457.21 53.2553 481.31 36.5053 506.75 36.2953C519.13 36.1853 529.75 40.2953 535.88 47.4953L536.26 47.1753C530.06 40.0153 519.49 35.8453 507.14 35.8453Z" fill="white"/>
</g>
</g>
<g style="mix-blend-mode:overlay">
<g style="mix-blend-mode:overlay">
<path d="M167.89 -40.8247C156.89 -36.7647 154.48 -22.8247 153.95 -16.9447C153.72 -14.5047 153.61 -11.9447 153.5 -9.54472C153.18 -2.41473 152.84 4.95528 149.7 11.3653C143.75 23.5153 129.41 28.5353 121.4 30.4553C116.59 31.5953 111.61 32.3553 106.79 33.0853C100.08 34.0853 93.14 35.1653 86.57 37.2853C77.2331 40.4 68.7254 45.5944 61.6889 52.4768C54.6524 59.3591 49.2707 67.7496 45.95 77.0153C44.79 80.3353 43.88 83.8453 42.95 87.2353C40.95 95.0253 38.83 103.075 33.67 109.235C24.21 120.595 8.02 122.355 -7.75 123.235C-15.96 123.665 -24.44 124.115 -32.57 122.155C-41.57 119.995 -48.74 114.915 -52.14 108.225L-52.58 108.455C-49.11 115.275 -41.86 120.455 -32.69 122.645C-24.48 124.645 -15.97 124.165 -7.69 123.735C8.19 122.895 24.5 121.115 34.1 109.595C39.32 103.315 41.43 95.2153 43.47 87.3753C44.35 83.9853 45.26 80.4853 46.41 77.1853C49.7018 67.9873 55.0396 59.6571 62.0208 52.8233C69.0019 45.9894 77.444 40.8303 86.71 37.7353C93.24 35.6153 100.16 34.5653 106.86 33.5553C111.69 32.8153 116.68 32.0653 121.5 30.9053C135.5 27.5653 145.66 20.6953 150.14 11.5553C153.33 5.05527 153.67 -2.37473 153.99 -9.55473C154.1 -11.9847 154.21 -14.4947 154.44 -16.9347C154.96 -22.6647 157.34 -36.4247 168.05 -40.3847L167.89 -40.8247Z" fill="white"/>
</g>
</g>
<g style="mix-blend-mode:overlay">
<g style="mix-blend-mode:overlay">
<path d="M-26.11 -102.785C-39.1032 -102.825 -51.9754 -100.287 -63.9809 -95.3178C-75.9863 -90.3485 -86.8865 -83.0464 -96.05 -73.8347C-114.58 -55.2734 -124.988 -30.1175 -124.988 -3.88971C-124.988 22.338 -114.58 47.494 -96.05 66.0553C-86.8873 75.2688 -75.9875 82.5727 -63.982 87.5438C-51.9765 92.5149 -39.1039 95.0545 -26.11 95.0153C-13.1035 95.055 -0.218521 92.512 11.7977 87.5338C23.8139 82.5557 34.7222 75.2415 43.89 66.0153C62.4203 47.454 72.8279 22.298 72.8279 -3.92972C72.8279 -30.1575 62.4203 -55.3134 43.89 -73.8747C34.7147 -83.0846 23.8031 -90.3822 11.7872 -95.3448C-0.228622 -100.307 -13.1098 -102.836 -26.11 -102.785ZM-26.11 94.5053C-52.0342 94.2439 -76.8077 83.7622 -95.0472 65.338C-113.287 46.9137 -123.518 22.0358 -123.518 -3.88971C-123.518 -29.8152 -113.287 -54.6932 -95.0472 -73.1174C-76.8077 -91.5417 -52.0342 -102.023 -26.11 -102.285C-13.1051 -102.416 -0.203255 -99.9676 11.8496 -95.0816C23.9024 -90.1956 34.8671 -82.9687 44.1097 -73.8188C53.3522 -64.669 60.6892 -53.7777 65.6965 -41.7747C70.7038 -29.7718 73.282 -16.8953 73.282 -3.88971C73.282 9.11584 70.7038 21.9924 65.6965 33.9953C60.6892 45.9983 53.3522 56.8896 44.1097 66.0394C34.8671 75.1893 23.9024 82.4161 11.8496 87.3021C-0.203255 92.1882 -13.1051 94.6364 -26.11 94.5053Z" fill="#4A4A4A"/>
</g>
<g style="mix-blend-mode:overlay">
<path d="M-26.11 -90.4547C-48.9073 -90.2097 -70.6877 -80.9816 -86.7219 -64.7741C-102.756 -48.5667 -111.75 -26.6883 -111.75 -3.8897C-111.75 18.9089 -102.756 40.7872 -86.7219 56.9947C-70.6877 73.2022 -48.9073 82.4303 -26.11 82.6753C-14.6638 82.7983 -3.30692 80.6501 7.30354 76.355C17.914 72.0599 27.5673 65.7031 35.7048 57.6526C43.8423 49.6021 50.3025 40.0177 54.7114 29.454C59.1203 18.8903 61.3904 7.55713 61.3904 -3.8897C61.3904 -15.3365 59.1203 -26.6697 54.7114 -37.2334C50.3025 -47.7971 43.8423 -57.3815 35.7048 -65.432C27.5673 -73.4825 17.914 -79.8393 7.30354 -84.1344C-3.30692 -88.4295 -14.6638 -90.5777 -26.11 -90.4547ZM-26.11 82.1753C-48.9398 82.1753 -70.8346 73.1062 -86.9778 56.963C-103.121 40.8199 -112.19 18.9251 -112.19 -3.90472C-112.19 -26.7346 -103.121 -48.6293 -86.9778 -64.7725C-70.8346 -80.9156 -48.9398 -89.9847 -26.11 -89.9847C-14.7297 -90.1074 -3.43811 -87.9718 7.11137 -83.7017C17.6609 -79.4315 27.2587 -73.1116 35.3495 -65.1075C43.4403 -57.1035 49.8634 -47.5743 54.247 -37.0714C58.6306 -26.5686 60.8877 -15.3006 60.8877 -3.9197C60.8877 7.46124 58.6306 18.7292 54.247 29.232C49.8634 39.7349 43.4403 49.264 35.3495 57.2681C27.2587 65.2722 17.6609 71.5921 7.11137 75.8623C-3.43811 80.1324 -14.7297 82.268 -26.11 82.1453V82.1753Z" fill="#4A4A4A"/>
</g>
<g style="mix-blend-mode:overlay">
<path d="M-26.11 -78.1247C-45.6491 -77.8979 -64.311 -69.9769 -78.0477 -56.0798C-91.7845 -42.1826 -99.4884 -23.4301 -99.4884 -3.88966C-99.4884 15.6508 -91.7845 34.4033 -78.0477 48.3004C-64.311 62.1976 -45.6491 70.1186 -26.11 70.3453C-16.2888 70.4593 -6.54264 68.6234 2.56393 64.9439C11.6705 61.2643 19.9564 55.8144 26.9417 48.9097C33.927 42.005 39.4727 33.7829 43.2577 24.7197C47.0427 15.6564 48.9916 5.93218 48.9916 -3.88966C48.9916 -13.7115 47.0427 -23.4357 43.2577 -32.499C39.4727 -41.5622 33.927 -49.7843 26.9417 -56.689C19.9564 -63.5937 11.6705 -69.0437 2.56393 -72.7232C-6.54264 -76.4027 -16.2888 -78.2387 -26.11 -78.1247ZM-26.11 69.8753C-45.517 69.6493 -64.0525 61.7813 -77.6961 47.9779C-91.3397 34.1745 -98.9913 15.5487 -98.9913 -3.85966C-98.9913 -23.268 -91.3397 -41.8938 -77.6961 -55.6972C-64.0525 -69.5006 -45.517 -77.3686 -26.11 -77.5947C-16.3547 -77.7083 -6.67388 -75.885 2.37169 -72.2304C11.4173 -68.5758 19.6477 -63.1626 26.5863 -56.3044C33.5248 -49.4462 39.0335 -41.2794 42.7931 -32.277C46.5528 -23.2746 48.4887 -13.6156 48.4887 -3.85966C48.4887 5.89628 46.5528 15.5552 42.7931 24.5576C39.0335 33.56 33.5248 41.7269 26.5863 48.5851C19.6477 55.4433 11.4173 60.8565 2.37169 64.5111C-6.67388 68.1657 -16.3547 69.9889 -26.11 69.8753Z" fill="#4A4A4A"/>
</g>
<g style="mix-blend-mode:overlay">
<path d="M-26.11 -65.7947C-42.392 -65.5878 -57.9369 -58.9746 -69.3775 -47.3877C-80.8181 -35.8007 -87.2332 -20.173 -87.2332 -3.88974C-87.2332 12.3935 -80.8181 28.0212 -69.3775 39.6082C-57.9369 51.1951 -42.392 57.8083 -26.11 58.0153C-17.9143 58.1194 -9.77951 56.5952 -2.17752 53.5309C5.42447 50.4666 12.3423 45.9233 18.1747 40.1645C24.0071 34.4058 28.638 27.5462 31.7986 19.9838C34.9593 12.4214 36.5868 4.30661 36.5868 -3.88974C36.5868 -12.0861 34.9593 -20.2008 31.7986 -27.7633C28.638 -35.3257 24.0071 -42.1853 18.1747 -47.944C12.3423 -53.7028 5.42447 -58.2461 -2.17752 -61.3104C-9.77951 -64.3746 -17.9143 -65.8989 -26.11 -65.7947ZM-26.11 57.5153C-42.2599 57.3092 -57.6784 50.749 -69.026 39.2557C-80.3735 27.7625 -86.7364 12.2615 -86.7364 -3.88974C-86.7364 -20.0409 -80.3735 -35.5419 -69.026 -47.0352C-57.6784 -58.5285 -42.2599 -65.0886 -26.11 -65.2947C-17.9802 -65.3985 -9.9108 -63.8868 -2.36984 -60.8475C5.17112 -57.8082 12.0335 -53.3016 17.8191 -47.5893C23.6048 -41.8771 28.1985 -35.0728 31.3338 -27.5712C34.4691 -20.0696 36.0836 -12.0202 36.0836 -3.88974C36.0836 4.24068 34.4691 12.2902 31.3338 19.7917C28.1985 27.2933 23.6048 34.0976 17.8191 39.8099C12.0335 45.5221 5.17112 50.0287 -2.36984 53.068C-9.9108 56.1074 -17.9802 57.619 -26.11 57.5153Z" fill="#4A4A4A"/>
</g>
<g style="mix-blend-mode:overlay">
<path d="M-26.11 -53.4647C-39.1362 -53.2797 -51.5661 -47.9752 -60.7123 -38.6982C-69.8585 -29.4212 -74.9859 -16.9172 -74.9859 -3.88969C-74.9859 9.13778 -69.8585 21.6418 -60.7123 30.9188C-51.5661 40.1958 -39.1362 45.5003 -26.11 45.6853C-13.0838 45.5003 -0.653862 40.1958 8.49231 30.9188C17.6385 21.6418 22.7659 9.13778 22.7659 -3.88969C22.7659 -16.9172 17.6385 -29.4212 8.49231 -38.6982C-0.653862 -47.9752 -13.0838 -53.2797 -26.11 -53.4647ZM-26.11 45.1853C-39.0042 45.0012 -51.3079 39.7499 -60.361 30.5665C-69.4142 21.3832 -74.4894 9.00579 -74.4894 -3.88969C-74.4894 -16.7852 -69.4142 -29.1626 -60.361 -38.3459C-51.3079 -47.5293 -39.0042 -52.7806 -26.11 -52.9647C-13.2158 -52.7806 -0.912125 -47.5293 8.14105 -38.3459C17.1942 -29.1626 22.2695 -16.7852 22.2695 -3.88969C22.2695 9.00579 17.1942 21.3832 8.14105 30.5665C-0.912125 39.7499 -13.2158 45.0012 -26.11 45.1853Z" fill="#4A4A4A"/>
</g>
</g>
<path style="mix-blend-mode:color-burn" d="M202.2 59.0253C208.308 59.0253 213.26 63.977 213.26 70.0853C213.26 76.1935 208.308 81.1453 202.2 81.1453C196.092 81.1453 191.14 76.1935 191.14 70.0853C191.14 63.977 196.092 59.0253 202.2 59.0253Z" fill="url(#paint3_radial)"/>
<path d="M210.101 71.4311C211.126 75.7742 208.436 80.126 204.093 81.1511C199.75 82.1762 195.398 79.4864 194.373 75.1432C193.348 70.8001 196.038 66.4483 200.381 65.4232C204.724 64.3982 209.076 67.088 210.101 71.4311Z" fill="url(#paint4_linear)"/>
<g style="mix-blend-mode:color-dodge">
<path style="mix-blend-mode:color-dodge" d="M-5.72867 131.666L-6.42508 130.948L108.089 19.8213L108.785 20.539L-5.72867 131.666Z" fill="url(#paint5_linear)"/>
</g>
<g style="mix-blend-mode:color-dodge">
<path style="mix-blend-mode:color-dodge" d="M118.997 81.778L118.29 81.0709L185.19 14.1716L185.897 14.8787L118.997 81.778Z" fill="url(#paint6_linear)"/>
</g>
<g style="mix-blend-mode:overlay">
<g style="mix-blend-mode:overlay">
<path d="M0.580002 115.795C1.06601 115.795 1.46 116.189 1.46 116.675C1.46 117.161 1.06601 117.555 0.580002 117.555C0.0939912 117.555 -0.300003 117.161 -0.300003 116.675C-0.300003 116.189 0.0939912 115.795 0.580002 115.795Z" fill="white"/>
</g>
<g style="mix-blend-mode:overlay">
<path d="M6.58 115.795C7.06601 115.795 7.46001 116.189 7.46001 116.675C7.46001 117.161 7.06601 117.555 6.58 117.555C6.09399 117.555 5.7 117.161 5.7 116.675C5.7 116.189 6.09399 115.795 6.58 115.795Z" fill="white"/>
</g>
<g style="mix-blend-mode:overlay">
<path d="M12.58 115.795C13.066 115.795 13.46 116.189 13.46 116.675C13.46 117.161 13.066 117.555 12.58 117.555C12.094 117.555 11.7 117.161 11.7 116.675C11.7 116.189 12.094 115.795 12.58 115.795Z" fill="white"/>
</g>
<g style="mix-blend-mode:overlay">
<path d="M0.580002 109.795C1.06601 109.795 1.46 110.189 1.46 110.675C1.46 111.161 1.06601 111.555 0.580002 111.555C0.0939912 111.555 -0.300003 111.161 -0.300003 110.675C-0.300003 110.189 0.0939912 109.795 0.580002 109.795Z" fill="white"/>
</g>
<g style="mix-blend-mode:overlay">
<path d="M6.58 109.795C7.06601 109.795 7.46001 110.189 7.46001 110.675C7.46001 111.161 7.06601 111.555 6.58 111.555C6.09399 111.555 5.7 111.161 5.7 110.675C5.7 110.189 6.09399 109.795 6.58 109.795Z" fill="white"/>
</g>
<g style="mix-blend-mode:overlay">
<path d="M12.58 109.795C13.066 109.795 13.46 110.189 13.46 110.675C13.46 111.161 13.066 111.555 12.58 111.555C12.094 111.555 11.7 111.161 11.7 110.675C11.7 110.189 12.094 109.795 12.58 109.795Z" fill="white"/>
</g>
<g style="mix-blend-mode:overlay">
<path d="M0.580002 103.795C1.06601 103.795 1.46 104.189 1.46 104.675C1.46 105.161 1.06601 105.555 0.580002 105.555C0.0939912 105.555 -0.300003 105.161 -0.300003 104.675C-0.300003 104.189 0.0939912 103.795 0.580002 103.795Z" fill="white"/>
</g>
<g style="mix-blend-mode:overlay">
<path d="M6.58 103.795C7.06601 103.795 7.46001 104.189 7.46001 104.675C7.46001 105.161 7.06601 105.555 6.58 105.555C6.09399 105.555 5.7 105.161 5.7 104.675C5.7 104.189 6.09399 103.795 6.58 103.795Z" fill="white"/>
</g>
<g style="mix-blend-mode:overlay">
<path d="M12.58 103.795C13.066 103.795 13.46 104.189 13.46 104.675C13.46 105.161 13.066 105.555 12.58 105.555C12.094 105.555 11.7 105.161 11.7 104.675C11.7 104.189 12.094 103.795 12.58 103.795Z" fill="white"/>
</g>
<g style="mix-blend-mode:overlay">
<path d="M0.580002 97.7953C1.06601 97.7953 1.46 98.1893 1.46 98.6753C1.46 99.1613 1.06601 99.5553 0.580002 99.5553C0.0939912 99.5553 -0.300003 99.1613 -0.300003 98.6753C-0.300003 98.1893 0.0939912 97.7953 0.580002 97.7953Z" fill="white"/>
</g>
<g style="mix-blend-mode:overlay">
<path d="M6.58 97.7953C7.06601 97.7953 7.46001 98.1893 7.46001 98.6753C7.46001 99.1613 7.06601 99.5553 6.58 99.5553C6.09399 99.5553 5.7 99.1613 5.7 98.6753C5.7 98.1893 6.09399 97.7953 6.58 97.7953Z" fill="white"/>
</g>
<g style="mix-blend-mode:overlay">
<path d="M12.58 97.7953C13.066 97.7953 13.46 98.1893 13.46 98.6753C13.46 99.1613 13.066 99.5553 12.58 99.5553C12.094 99.5553 11.7 99.1613 11.7 98.6753C11.7 98.1893 12.094 97.7953 12.58 97.7953Z" fill="white"/>
</g>
<g style="mix-blend-mode:overlay">
<path d="M0.580002 91.7953C1.06601 91.7953 1.46 92.1893 1.46 92.6753C1.46 93.1613 1.06601 93.5553 0.580002 93.5553C0.0939912 93.5553 -0.300003 93.1613 -0.300003 92.6753C-0.300003 92.1893 0.0939912 91.7953 0.580002 91.7953Z" fill="white"/>
</g>
<g style="mix-blend-mode:overlay">
<path d="M6.58 91.7953C7.06601 91.7953 7.46001 92.1893 7.46001 92.6753C7.46001 93.1613 7.06601 93.5553 6.58 93.5553C6.09399 93.5553 5.7 93.1613 5.7 92.6753C5.7 92.1893 6.09399 91.7953 6.58 91.7953Z" fill="white"/>
</g>
<g style="mix-blend-mode:overlay">
<path d="M12.58 91.7953C13.066 91.7953 13.46 92.1893 13.46 92.6753C13.46 93.1613 13.066 93.5553 12.58 93.5553C12.094 93.5553 11.7 93.1613 11.7 92.6753C11.7 92.1893 12.094 91.7953 12.58 91.7953Z" fill="white"/>
</g>
<g style="mix-blend-mode:overlay">
<path d="M0.580002 85.7953C1.06601 85.7953 1.46 86.1893 1.46 86.6753C1.46 87.1613 1.06601 87.5553 0.580002 87.5553C0.0939912 87.5553 -0.300003 87.1613 -0.300003 86.6753C-0.300003 86.1893 0.0939912 85.7953 0.580002 85.7953Z" fill="white"/>
</g>
<g style="mix-blend-mode:overlay">
<path d="M6.58 85.7953C7.06601 85.7953 7.46001 86.1893 7.46001 86.6753C7.46001 87.1613 7.06601 87.5553 6.58 87.5553C6.09399 87.5553 5.7 87.1613 5.7 86.6753C5.7 86.1893 6.09399 85.7953 6.58 85.7953Z" fill="white"/>
</g>
<g style="mix-blend-mode:overlay">
<path d="M12.58 85.7953C13.066 85.7953 13.46 86.1893 13.46 86.6753C13.46 87.1613 13.066 87.5553 12.58 87.5553C12.094 87.5553 11.7 87.1613 11.7 86.6753C11.7 86.1893 12.094 85.7953 12.58 85.7953Z" fill="white"/>
</g>
<g style="mix-blend-mode:overlay">
<path d="M0.580002 79.7953C1.06601 79.7953 1.46 80.1893 1.46 80.6753C1.46 81.1613 1.06601 81.5553 0.580002 81.5553C0.0939912 81.5553 -0.300003 81.1613 -0.300003 80.6753C-0.300003 80.1893 0.0939912 79.7953 0.580002 79.7953Z" fill="white"/>
</g>
<g style="mix-blend-mode:overlay">
<path d="M6.58 79.7953C7.06601 79.7953 7.46001 80.1893 7.46001 80.6753C7.46001 81.1613 7.06601 81.5553 6.58 81.5553C6.09399 81.5553 5.7 81.1613 5.7 80.6753C5.7 80.1893 6.09399 79.7953 6.58 79.7953Z" fill="white"/>
</g>
<g style="mix-blend-mode:overlay">
<path d="M12.58 79.7953C13.066 79.7953 13.46 80.1893 13.46 80.6753C13.46 81.1613 13.066 81.5553 12.58 81.5553C12.094 81.5553 11.7 81.1613 11.7 80.6753C11.7 80.1893 12.094 79.7953 12.58 79.7953Z" fill="white"/>
</g>
<g style="mix-blend-mode:overlay">
<path d="M0.580002 73.7953C1.06601 73.7953 1.46 74.1893 1.46 74.6753C1.46 75.1613 1.06601 75.5553 0.580002 75.5553C0.0939912 75.5553 -0.300003 75.1613 -0.300003 74.6753C-0.300003 74.1893 0.0939912 73.7953 0.580002 73.7953Z" fill="white"/>
</g>
<g style="mix-blend-mode:overlay">
<path d="M6.58 73.7953C7.06601 73.7953 7.46001 74.1893 7.46001 74.6753C7.46001 75.1613 7.06601 75.5553 6.58 75.5553C6.09399 75.5553 5.7 75.1613 5.7 74.6753C5.7 74.1893 6.09399 73.7953 6.58 73.7953Z" fill="white"/>
</g>
<g style="mix-blend-mode:overlay">
<path d="M12.58 73.7953C13.066 73.7953 13.46 74.1893 13.46 74.6753C13.46 75.1613 13.066 75.5553 12.58 75.5553C12.094 75.5553 11.7 75.1613 11.7 74.6753C11.7 74.1893 12.094 73.7953 12.58 73.7953Z" fill="white"/>
</g>
<g style="mix-blend-mode:overlay">
<path d="M0.580002 67.7953C1.06601 67.7953 1.46 68.1893 1.46 68.6753C1.46 69.1613 1.06601 69.5553 0.580002 69.5553C0.0939912 69.5553 -0.300003 69.1613 -0.300003 68.6753C-0.300003 68.1893 0.0939912 67.7953 0.580002 67.7953Z" fill="white"/>
</g>
<g style="mix-blend-mode:overlay">
<path d="M6.58 67.7953C7.06601 67.7953 7.46001 68.1893 7.46001 68.6753C7.46001 69.1613 7.06601 69.5553 6.58 69.5553C6.09399 69.5553 5.7 69.1613 5.7 68.6753C5.7 68.1893 6.09399 67.7953 6.58 67.7953Z" fill="white"/>
</g>
<g style="mix-blend-mode:overlay">
<path d="M12.58 67.7953C13.066 67.7953 13.46 68.1893 13.46 68.6753C13.46 69.1613 13.066 69.5553 12.58 69.5553C12.094 69.5553 11.7 69.1613 11.7 68.6753C11.7 68.1893 12.094 67.7953 12.58 67.7953Z" fill="white"/>
</g>
<g style="mix-blend-mode:overlay">
<path d="M0.580002 61.7953C1.06601 61.7953 1.46 62.1893 1.46 62.6753C1.46 63.1613 1.06601 63.5553 0.580002 63.5553C0.0939912 63.5553 -0.300003 63.1613 -0.300003 62.6753C-0.300003 62.1893 0.0939912 61.7953 0.580002 61.7953Z" fill="white"/>
</g>
<g style="mix-blend-mode:overlay">
<path d="M6.58 61.7953C7.06601 61.7953 7.46001 62.1893 7.46001 62.6753C7.46001 63.1613 7.06601 63.5553 6.58 63.5553C6.09399 63.5553 5.7 63.1613 5.7 62.6753C5.7 62.1893 6.09399 61.7953 6.58 61.7953Z" fill="white"/>
</g>
<g style="mix-blend-mode:overlay">
<path d="M12.58 61.7953C13.066 61.7953 13.46 62.1893 13.46 62.6753C13.46 63.1613 13.066 63.5553 12.58 63.5553C12.094 63.5553 11.7 63.1613 11.7 62.6753C11.7 62.1893 12.094 61.7953 12.58 61.7953Z" fill="white"/>
</g>
<g style="mix-blend-mode:overlay">
<path d="M0.580002 55.7953C1.06601 55.7953 1.46 56.1893 1.46 56.6753C1.46 57.1613 1.06601 57.5553 0.580002 57.5553C0.0939912 57.5553 -0.300003 57.1613 -0.300003 56.6753C-0.300003 56.1893 0.0939912 55.7953 0.580002 55.7953Z" fill="white"/>
</g>
<g style="mix-blend-mode:overlay">
<path d="M6.58 55.7953C7.06601 55.7953 7.46001 56.1893 7.46001 56.6753C7.46001 57.1613 7.06601 57.5553 6.58 57.5553C6.09399 57.5553 5.7 57.1613 5.7 56.6753C5.7 56.1893 6.09399 55.7953 6.58 55.7953Z" fill="white"/>
</g>
<g style="mix-blend-mode:overlay">
<path d="M12.58 55.7953C13.066 55.7953 13.46 56.1893 13.46 56.6753C13.46 57.1613 13.066 57.5553 12.58 57.5553C12.094 57.5553 11.7 57.1613 11.7 56.6753C11.7 56.1893 12.094 55.7953 12.58 55.7953Z" fill="white"/>
</g>
<g style="mix-blend-mode:overlay">
<path d="M0.580002 49.7953C1.06601 49.7953 1.46 50.1893 1.46 50.6753C1.46 51.1613 1.06601 51.5553 0.580002 51.5553C0.0939912 51.5553 -0.300003 51.1613 -0.300003 50.6753C-0.300003 50.1893 0.0939912 49.7953 0.580002 49.7953Z" fill="white"/>
</g>
<g style="mix-blend-mode:overlay">
<path d="M6.58 49.7953C7.06601 49.7953 7.46001 50.1893 7.46001 50.6753C7.46001 51.1613 7.06601 51.5553 6.58 51.5553C6.09399 51.5553 5.7 51.1613 5.7 50.6753C5.7 50.1893 6.09399 49.7953 6.58 49.7953Z" fill="white"/>
</g>
<g style="mix-blend-mode:overlay">
<path d="M12.58 49.7953C13.066 49.7953 13.46 50.1893 13.46 50.6753C13.46 51.1613 13.066 51.5553 12.58 51.5553C12.094 51.5553 11.7 51.1613 11.7 50.6753C11.7 50.1893 12.094 49.7953 12.58 49.7953Z" fill="white"/>
</g>
<g style="mix-blend-mode:overlay">
<path d="M0.580002 43.7953C1.06601 43.7953 1.46 44.1893 1.46 44.6753C1.46 45.1613 1.06601 45.5553 0.580002 45.5553C0.0939912 45.5553 -0.300003 45.1613 -0.300003 44.6753C-0.300003 44.1893 0.0939912 43.7953 0.580002 43.7953Z" fill="white"/>
</g>
<g style="mix-blend-mode:overlay">
<path d="M6.58 43.7953C7.06601 43.7953 7.46001 44.1893 7.46001 44.6753C7.46001 45.1613 7.06601 45.5553 6.58 45.5553C6.09399 45.5553 5.7 45.1613 5.7 44.6753C5.7 44.1893 6.09399 43.7953 6.58 43.7953Z" fill="white"/>
</g>
<g style="mix-blend-mode:overlay">
<path d="M12.58 43.7953C13.066 43.7953 13.46 44.1893 13.46 44.6753C13.46 45.1613 13.066 45.5553 12.58 45.5553C12.094 45.5553 11.7 45.1613 11.7 44.6753C11.7 44.1893 12.094 43.7953 12.58 43.7953Z" fill="white"/>
</g>
<g style="mix-blend-mode:overlay">
<path d="M0.580002 37.7953C1.06601 37.7953 1.46 38.1893 1.46 38.6753C1.46 39.1613 1.06601 39.5553 0.580002 39.5553C0.0939912 39.5553 -0.300003 39.1613 -0.300003 38.6753C-0.300003 38.1893 0.0939912 37.7953 0.580002 37.7953Z" fill="white"/>
</g>
<g style="mix-blend-mode:overlay">
<path d="M6.58 37.7953C7.06601 37.7953 7.46001 38.1893 7.46001 38.6753C7.46001 39.1613 7.06601 39.5553 6.58 39.5553C6.09399 39.5553 5.7 39.1613 5.7 38.6753C5.7 38.1893 6.09399 37.7953 6.58 37.7953Z" fill="white"/>
</g>
<g style="mix-blend-mode:overlay">
<path d="M12.58 37.7953C13.066 37.7953 13.46 38.1893 13.46 38.6753C13.46 39.1613 13.066 39.5553 12.58 39.5553C12.094 39.5553 11.7 39.1613 11.7 38.6753C11.7 38.1893 12.094 37.7953 12.58 37.7953Z" fill="white"/>
</g>
</g>
</g>
<defs>
<linearGradient id="paint0_linear" x1="-73.44" y1="173.435" x2="367.63" y2="478.445" gradientUnits="userSpaceOnUse">
<stop stop-color="#FAB662"/>
<stop offset="1" stop-color="#F8EBDC"/>
</linearGradient>
<linearGradient id="paint1_linear" x1="-72.32" y1="38.0653" x2="188.93" y2="38.0653" gradientUnits="userSpaceOnUse">
<stop stop-color="#FF8A00"/>
<stop offset="1" stop-color="#FFBC00"/>
</linearGradient>
<linearGradient id="paint2_linear" x1="74110.4" y1="-12478.5" x2="146266" y2="-12478.5" gradientUnits="userSpaceOnUse">
<stop stop-color="#FF8A00"/>
<stop offset="1" stop-color="#FFBC00"/>
</linearGradient>
<radialGradient id="paint3_radial" cx="0" cy="0" r="1" gradientUnits="userSpaceOnUse" gradientTransform="translate(7428.8 -8456.29) scale(244.647)">
<stop offset="0.2" stop-color="#4D4D4D"/>
<stop offset="0.58" stop-color="#A9A9A9"/>
<stop offset="0.87" stop-color="#E7E7E7"/>
<stop offset="1" stop-color="white"/>
</radialGradient>
<linearGradient id="paint4_linear" x1="4009.52" y1="-3118.17" x2="4009.52" y2="-2900.33" gradientUnits="userSpaceOnUse">
<stop stop-color="#FF8A00"/>
<stop offset="1" stop-color="#FFBC00"/>
</linearGradient>
<linearGradient id="paint5_linear" x1="-6.42362" y1="75.7508" x2="108.796" y2="75.7508" gradientUnits="userSpaceOnUse">
<stop/>
<stop offset="0.11" stop-color="#060606"/>
<stop offset="0.25" stop-color="#161616"/>
<stop offset="0.41" stop-color="#323232"/>
<stop offset="0.59" stop-color="#575757"/>
<stop offset="0.78" stop-color="#888888"/>
<stop offset="0.97" stop-color="#C3C3C3"/>
<stop offset="1" stop-color="#CCCCCC"/>
</linearGradient>
<linearGradient id="paint6_linear" x1="303.742" y1="-20437.9" x2="371.352" y2="-20437.9" gradientUnits="userSpaceOnUse">
<stop/>
<stop offset="0.11" stop-color="#060606"/>
<stop offset="0.25" stop-color="#161616"/>
<stop offset="0.41" stop-color="#323232"/>
<stop offset="0.59" stop-color="#575757"/>
<stop offset="0.78" stop-color="#888888"/>
<stop offset="0.97" stop-color="#C3C3C3"/>
<stop offset="1" stop-color="#CCCCCC"/>
</linearGradient>
</defs>
</svg>
