<svg width="596" height="631" viewBox="0 0 596 631" fill="none" xmlns="http://www.w3.org/2000/svg">
<g clip-path="url(#clip0)">
<path d="M473.247 420.789C502.301 420.789 525.855 444.318 525.855 473.342C525.855 502.366 502.301 525.895 473.247 525.895C444.192 525.895 420.638 502.366 420.638 473.342C420.638 444.318 444.192 420.789 473.247 420.789Z" fill="#FF8B61"/>
<path d="M473.508 442.229C490.566 442.229 504.393 456.042 504.393 473.08C504.393 490.12 490.566 503.932 473.508 503.932C456.452 503.932 442.624 490.12 442.624 473.08C442.624 456.042 456.452 442.229 473.508 442.229Z" fill="#2D374C"/>
<path d="M473.508 456.87C482.47 456.87 489.736 464.127 489.736 473.08C489.736 482.033 482.47 489.29 473.508 489.29C464.546 489.29 457.281 482.033 457.281 473.08C457.281 464.127 464.546 456.87 473.508 456.87Z" fill="#F1E3CF"/>
<path d="M368.806 289.73C368.806 303.993 380.38 315.555 394.657 315.555C408.935 315.555 420.509 303.993 420.509 289.73C420.509 275.468 408.935 263.906 394.657 263.906C380.38 263.906 368.806 275.468 368.806 289.73Z" fill="url(#paint0_linear)"/>
<path d="M315.551 289.73C315.551 303.993 327.125 315.555 341.403 315.555C355.68 315.555 367.254 303.993 367.254 289.73C367.254 275.468 355.68 263.906 341.403 263.906C327.125 263.906 315.551 275.468 315.551 289.73Z" fill="#FF8B61"/>
<path d="M368.806 237.565C368.806 251.828 380.38 263.389 394.657 263.389C408.935 263.389 420.509 251.828 420.509 237.565C420.509 223.302 408.935 211.741 394.657 211.741C380.38 211.741 368.806 223.302 368.806 237.565Z" fill="#FF8B61"/>
<path d="M315.422 210.578V236.918C315.422 251.466 327.286 263.26 341.92 263.26C356.554 263.26 368.418 251.466 368.418 236.918C368.418 222.372 356.554 210.578 341.92 210.578H315.422Z" fill="#8F65C4"/>
<path d="M446.49 236.402H500.261V290.117H446.49V236.402Z" fill="white" fill-opacity="0.2"/>
<path d="M472.982 240.24L449.803 263.395L472.982 286.55L496.162 263.395L472.982 240.24Z" fill="#8F65C4"/>
<path d="M515.773 220.65H483.975C483.975 238.192 498.211 252.414 515.773 252.414V220.65Z" fill="url(#paint1_linear)"/>
<path d="M515.773 305.612V273.848C498.211 273.848 483.975 288.069 483.975 305.612H515.773Z" fill="url(#paint2_linear)"/>
<path d="M431.496 305.612H463.294C463.294 288.069 449.058 273.848 431.496 273.848V305.612Z" fill="url(#paint3_linear)"/>
<path d="M431.496 220.65V252.414C449.058 252.414 463.294 238.192 463.294 220.65H431.496Z" fill="url(#paint4_linear)"/>
<path d="M578.821 541.083L541.502 578.391L578.821 615.699L616.141 578.391L578.821 541.083Z" fill="#7F16A7"/>
<path d="M592.109 565.108H565.533V591.675H592.109V565.108Z" fill="#8F65C4"/>
<path d="M420.638 158.289V210.578H472.983C502.183 210.578 525.855 186.931 525.855 157.761V105.472H473.511C444.311 105.472 420.638 129.119 420.638 158.289Z" fill="#8F65C4"/>
<path d="M443.374 158.025C443.374 175.09 457.222 188.923 474.304 188.923C491.387 188.923 505.236 175.09 505.236 158.025V127.127H474.304C457.222 127.127 443.374 140.961 443.374 158.025Z" fill="#7F16A7"/>
<path d="M420.638 189.821V210.842H441.682C459.114 210.842 473.247 196.724 473.247 179.31V158.289H452.203C434.771 158.289 420.638 172.406 420.638 189.821Z" fill="#FF8B61"/>
<path d="M631.072 158.289V210.578H578.728C549.528 210.578 525.855 186.931 525.855 157.761V105.472H578.2C607.4 105.472 631.072 129.119 631.072 158.289Z" fill="url(#paint5_linear)"/>
<path d="M608.337 158.025C608.337 175.09 594.489 188.923 577.407 188.923C560.324 188.923 546.476 175.09 546.476 158.025V127.127H577.407C594.489 127.127 608.337 140.961 608.337 158.025Z" fill="#7F16A7"/>
<path d="M631.072 189.821V210.842H610.029C592.595 210.842 578.464 196.724 578.464 179.31V158.289H599.507C616.94 158.289 631.072 172.406 631.072 189.821Z" fill="#FF8B61"/>
<path d="M578.464 420.789C549.409 420.789 525.855 444.318 525.855 473.342C525.855 502.366 549.409 525.895 578.464 525.895H631.072V473.342C631.072 444.318 607.518 420.789 578.464 420.789Z" fill="white" fill-opacity="0.2"/>
<path d="M631.072 494.509C631.072 477.13 616.966 463.042 599.593 463.042C582.241 463.042 568.153 477.112 568.153 494.468C568.153 511.824 582.22 525.894 599.571 525.894H631.072V494.509Z" fill="url(#paint6_linear)"/>
<path d="M578.464 440.727C560.724 440.727 546.343 455.092 546.343 472.813C546.343 490.534 560.724 504.899 578.464 504.899C596.204 504.899 610.584 490.534 610.584 472.813C610.584 455.092 596.204 440.727 578.464 440.727Z" fill="#8F65C4"/>
<path d="M578.464 454.03C568.079 454.03 559.66 462.441 559.66 472.814C559.66 483.187 568.079 491.597 578.464 491.597C588.848 491.597 597.266 483.187 597.266 472.814C597.266 462.441 588.848 454.03 578.464 454.03Z" fill="#7F16A7"/>
<path d="M368.046 412.148C392.46 412.148 412.252 392.377 412.252 367.989C412.252 343.601 392.46 323.83 368.046 323.83C343.631 323.83 323.839 343.601 323.839 367.989C323.839 392.377 343.631 412.148 368.046 412.148Z" fill="white" fill-opacity="0.2"/>
<path d="M366.498 420.789C338.289 420.789 315.422 397.946 315.422 369.767V368.236H316.954C345.163 368.236 368.03 391.08 368.03 419.259V420.789H366.498Z" fill="url(#paint7_linear)"/>
<path d="M419.106 368.236H420.638V369.767C420.638 397.946 397.771 420.789 369.562 420.789H368.03V419.259C368.03 391.08 390.897 368.236 419.106 368.236Z" fill="#8F65C4"/>
<path d="M369.562 368.236H368.03V366.705C368.03 338.527 390.897 315.683 419.106 315.683H420.638V317.214C420.638 345.393 397.771 368.236 369.562 368.236Z" fill="url(#paint8_linear)"/>
<path d="M316.954 315.683C345.163 315.683 368.03 338.527 368.03 366.705V368.236H366.498C338.289 368.236 315.422 345.393 315.422 317.214V315.683H316.954Z" fill="#8F65C4"/>
<path d="M631.072 420.789H525.855V315.683C583.965 315.683 631.072 362.741 631.072 420.789Z" fill="url(#paint9_linear)"/>
<path d="M585.573 420.79H525.855V360.988C558.836 360.988 585.573 387.762 585.573 420.79Z" fill="white" fill-opacity="0.2"/>
<path d="M553.259 420.789H525.855V393.348C540.989 393.348 553.259 405.634 553.259 420.789Z" fill="#7F16A7"/>
<path d="M525.855 315.683V420.789H420.638C420.638 362.741 467.745 315.683 525.855 315.683Z" fill="#8F65C4"/>
<path d="M525.855 360.988V420.79H466.138C466.138 387.762 492.875 360.988 525.855 360.988Z" fill="white" fill-opacity="0.2"/>
<path d="M525.855 393.348V420.789H498.452C498.452 405.634 510.722 393.348 525.855 393.348Z" fill="#7F16A7"/>
<path d="M-52.5744 105.472C-23.5196 105.472 0.0340195 129.001 0.0340195 158.025C0.0340195 187.049 -23.5196 210.578 -52.5744 210.578C-81.6292 210.578 -105.183 187.049 -105.183 158.025C-105.183 129.001 -81.6292 105.472 -52.5744 105.472Z" fill="#36868E"/>
<path d="M473.247 525.895C502.301 525.895 525.855 549.423 525.855 578.447C525.855 607.471 502.301 631 473.247 631C444.192 631 420.638 607.471 420.638 578.447C420.638 549.423 444.192 525.895 473.247 525.895Z" fill="#8F65C4"/>
<path d="M473.505 547.071C490.995 547.071 505.174 561.234 505.174 578.705C505.174 596.177 490.995 610.34 473.505 610.34C456.015 610.34 441.837 596.177 441.837 578.705C441.837 561.234 456.015 547.071 473.505 547.071Z" fill="#F1E3CF"/>
<path d="M474.023 562.307C483.374 562.307 490.955 569.88 490.955 579.222C490.955 588.563 483.374 596.136 474.023 596.136C464.67 596.136 457.089 588.563 457.089 579.222C457.089 569.88 464.67 562.307 474.023 562.307Z" fill="#7F16A7"/>
<path d="M525.855 567.213V631H462.002C462.002 595.771 490.59 567.213 525.855 567.213Z" fill="url(#paint10_linear)"/>
<path d="M158.372 446.743C158.372 432.48 169.946 420.917 184.224 420.917C198.501 420.917 210.075 432.48 210.075 446.743C210.075 461.004 198.501 472.567 184.224 472.567C169.946 472.567 158.372 461.004 158.372 446.743Z" fill="url(#paint11_linear)"/>
<path d="M105.117 446.743C105.117 432.48 116.691 420.917 130.969 420.917C145.246 420.917 156.82 432.48 156.82 446.743C156.82 461.004 145.246 472.567 130.969 472.567C116.691 472.567 105.117 461.004 105.117 446.743Z" fill="#FF8B61"/>
<path d="M158.372 498.907C158.372 484.645 169.946 473.083 184.224 473.083C198.501 473.083 210.075 484.645 210.075 498.907C210.075 513.17 198.501 524.731 184.224 524.731C169.946 524.731 158.372 513.17 158.372 498.907Z" fill="#FF8B61"/>
<path d="M104.988 525.895V499.554C104.988 485.006 116.852 473.212 131.486 473.212C146.12 473.212 157.984 485.006 157.984 499.554C157.984 514.101 146.12 525.895 131.486 525.895H104.988Z" fill="#8F65C4"/>
<path d="M236.056 500.07H289.828V446.355H236.056V500.07Z" fill="white" fill-opacity="0.2"/>
<path d="M262.548 496.233L239.368 473.078L262.548 449.922L285.728 473.078L262.548 496.233Z" fill="#36868E"/>
<path d="M305.339 515.822H273.541C273.541 498.28 287.777 484.059 305.339 484.059V515.822Z" fill="url(#paint12_linear)"/>
<path d="M305.339 430.86V462.625C287.777 462.625 273.541 448.403 273.541 430.86H305.339Z" fill="url(#paint13_linear)"/>
<path d="M221.062 430.86H252.86C252.86 448.403 238.624 462.625 221.062 462.625V430.86Z" fill="url(#paint14_linear)"/>
<path d="M221.062 515.822V484.059C238.624 484.059 252.86 498.28 252.86 515.822H221.062Z" fill="url(#paint15_linear)"/>
<path d="M157.596 525.895C186.651 525.895 210.205 549.423 210.205 578.447C210.205 607.471 186.651 631 157.596 631H104.988V578.447C104.988 549.423 128.542 525.895 157.596 525.895Z" fill="white" fill-opacity="0.2"/>
<path d="M136.447 568.147C153.821 568.147 167.906 582.217 167.906 599.574C167.906 616.93 153.821 631 136.447 631H104.988V599.574C104.988 582.217 119.073 568.147 136.447 568.147Z" fill="#7F16A7"/>
<path d="M157.596 545.833C175.336 545.833 189.717 560.198 189.717 577.919C189.717 595.639 175.336 610.005 157.596 610.005C139.856 610.005 125.476 595.639 125.476 577.919C125.476 560.198 139.856 545.833 157.596 545.833Z" fill="#8F65C4"/>
<path d="M157.596 559.137C167.981 559.137 176.4 567.546 176.4 577.92C176.4 588.293 167.981 596.702 157.596 596.702C147.212 596.702 138.794 588.293 138.794 577.92C138.794 567.546 147.212 559.137 157.596 559.137Z" fill="#7F16A7"/>
<path d="M210.205 578.183V525.895H262.549C291.749 525.895 315.422 549.541 315.422 578.711V631H263.077C233.877 631 210.205 607.353 210.205 578.183Z" fill="#8F65C4"/>
<path d="M232.94 578.447C232.94 561.383 246.788 547.549 263.87 547.549C280.953 547.549 294.802 561.383 294.802 578.447V609.345H263.87C246.788 609.345 232.94 595.512 232.94 578.447Z" fill="#7F16A7"/>
<path d="M210.205 546.651V525.63H231.248C248.681 525.63 262.813 539.748 262.813 557.162V578.183H241.77C224.337 578.183 210.205 564.066 210.205 546.651Z" fill="#FF8B61"/>
<path d="M262.813 420.789C233.759 420.789 210.205 397.26 210.205 368.236C210.205 339.212 233.759 315.683 262.813 315.683H315.422V368.236C315.422 397.26 291.868 420.789 262.813 420.789Z" fill="white" fill-opacity="0.2"/>
<path d="M315.421 347.068C315.421 364.446 301.316 378.535 283.942 378.535C266.59 378.535 252.503 364.466 252.503 347.11C252.503 329.753 266.57 315.683 283.921 315.683H315.421V347.068Z" fill="url(#paint16_linear)"/>
<path d="M262.813 400.851C245.073 400.851 230.692 386.485 230.692 368.764C230.692 351.043 245.073 336.678 262.813 336.678C280.553 336.678 294.933 351.043 294.933 368.764C294.933 386.485 280.553 400.851 262.813 400.851Z" fill="#8F65C4"/>
<path d="M262.813 387.547C252.428 387.547 244.01 379.137 244.01 368.764C244.01 358.391 252.428 349.981 262.813 349.981C273.197 349.981 281.616 358.391 281.616 368.764C281.616 379.137 273.197 387.547 262.813 387.547Z" fill="#7F16A7"/>
<path d="M578.593 307.141C603.008 307.141 622.8 287.379 622.8 263.002C622.8 238.624 603.008 218.863 578.593 218.863C554.178 218.863 534.386 238.624 534.386 263.002C534.386 287.379 554.178 307.141 578.593 307.141Z" fill="white" fill-opacity="0.2"/>
<path d="M631.072 210.578C631.072 239.459 607.693 262.872 578.852 262.872C578.852 233.991 602.232 210.578 631.072 210.578Z" fill="url(#paint17_linear)"/>
<path d="M578.076 261.349V262.872H576.555C548.555 262.872 525.855 240.141 525.855 212.101V210.578H527.377C555.377 210.578 578.076 233.309 578.076 261.349Z" fill="#8F65C4"/>
<path d="M576.555 263.389H578.076V264.913C578.076 292.953 555.377 315.684 527.377 315.684H525.855V314.16C525.855 286.12 548.555 263.389 576.555 263.389Z" fill="url(#paint18_linear)"/>
<path d="M631.072 314.16V315.684H629.551C601.55 315.684 578.852 292.953 578.852 264.913V263.389H580.373C608.373 263.389 631.072 286.12 631.072 314.16Z" fill="#8F65C4"/>
<path d="M78.9465 631H25.8119L52.3792 604.46L78.9465 631Z" fill="#8F65C4"/>
<path d="M-0.229218 631V525.895H104.988L-0.229218 631Z" fill="white" fill-opacity="0.2"/>
<path d="M104.988 631L-0.229218 525.895H104.988V631Z" fill="url(#paint19_linear)"/>
<path d="M394.86 525.895H341.725L368.292 499.355L394.86 525.895Z" fill="#FF8B61"/>
<path d="M315.685 525.895V420.789H420.902L315.685 525.895Z" fill="#8F65C4"/>
<path d="M420.902 525.895L315.685 420.789H420.902V525.895Z" fill="white" fill-opacity="0.2"/>
<path d="M341.726 525.895H394.86L368.293 552.433L341.726 525.895Z" fill="#FF8B61"/>
<path d="M420.902 525.895V631H315.685L420.902 525.895Z" fill="#8F65C4"/>
<path d="M315.685 525.895L420.902 631H315.685V525.895Z" fill="white" fill-opacity="0.2"/>
<path d="M578.922 0H631.531V52.5528C631.531 81.5768 607.977 105.106 578.922 105.106H526.314V52.5528C526.314 23.5287 549.868 0 578.922 0Z" fill="white" fill-opacity="0.2"/>
<path d="M578.922 22.7112C596.005 22.7112 609.853 36.5446 609.853 53.609C609.853 70.6734 596.005 84.5069 578.922 84.5069H547.992V53.609C547.992 36.5446 561.84 22.7112 578.922 22.7112Z" fill="#8F65C4"/>
<path d="M610.752 0H631.796V21.0211C631.796 38.4355 617.663 52.5527 600.231 52.5527H579.187V31.5317C579.187 14.1172 593.319 0 610.752 0Z" fill="url(#paint20_linear)"/>
</g>
<defs>
<linearGradient id="paint0_linear" x1="394.657" y1="263.906" x2="394.657" y2="315.555" gradientUnits="userSpaceOnUse">
<stop stop-color="#FF7566"/>
<stop offset="1" stop-color="#FE4C39"/>
</linearGradient>
<linearGradient id="paint1_linear" x1="499.874" y1="220.65" x2="499.874" y2="252.414" gradientUnits="userSpaceOnUse">
<stop stop-color="#FF7566"/>
<stop offset="1" stop-color="#FE4C39"/>
</linearGradient>
<linearGradient id="paint2_linear" x1="499.874" y1="273.848" x2="499.874" y2="305.612" gradientUnits="userSpaceOnUse">
<stop stop-color="#FF7566"/>
<stop offset="1" stop-color="#FE4C39"/>
</linearGradient>
<linearGradient id="paint3_linear" x1="447.395" y1="273.848" x2="447.395" y2="305.612" gradientUnits="userSpaceOnUse">
<stop stop-color="#FF7566"/>
<stop offset="1" stop-color="#FE4C39"/>
</linearGradient>
<linearGradient id="paint4_linear" x1="447.395" y1="220.65" x2="447.395" y2="252.414" gradientUnits="userSpaceOnUse">
<stop stop-color="#FF7566"/>
<stop offset="1" stop-color="#FE4C39"/>
</linearGradient>
<linearGradient id="paint5_linear" x1="578.464" y1="105.472" x2="578.464" y2="210.578" gradientUnits="userSpaceOnUse">
<stop stop-color="#FF7566"/>
<stop offset="1" stop-color="#FE4C39"/>
</linearGradient>
<linearGradient id="paint6_linear" x1="599.613" y1="463.042" x2="599.613" y2="525.894" gradientUnits="userSpaceOnUse">
<stop stop-color="#FF7566"/>
<stop offset="1" stop-color="#FE4C39"/>
</linearGradient>
<linearGradient id="paint7_linear" x1="341.726" y1="368.236" x2="341.726" y2="420.789" gradientUnits="userSpaceOnUse">
<stop stop-color="#FF7566"/>
<stop offset="1" stop-color="#FE4C39"/>
</linearGradient>
<linearGradient id="paint8_linear" x1="394.334" y1="315.683" x2="394.334" y2="368.236" gradientUnits="userSpaceOnUse">
<stop stop-color="#FF7566"/>
<stop offset="1" stop-color="#FE4C39"/>
</linearGradient>
<linearGradient id="paint9_linear" x1="578.464" y1="315.683" x2="578.464" y2="420.789" gradientUnits="userSpaceOnUse">
<stop stop-color="#FF7566"/>
<stop offset="1" stop-color="#FE4C39"/>
</linearGradient>
<linearGradient id="paint10_linear" x1="493.929" y1="567.213" x2="493.929" y2="631" gradientUnits="userSpaceOnUse">
<stop stop-color="#FF7566"/>
<stop offset="1" stop-color="#FE4C39"/>
</linearGradient>
<linearGradient id="paint11_linear" x1="184.224" y1="420.917" x2="184.224" y2="472.567" gradientUnits="userSpaceOnUse">
<stop stop-color="#FF7566"/>
<stop offset="1" stop-color="#FE4C39"/>
</linearGradient>
<linearGradient id="paint12_linear" x1="289.44" y1="484.059" x2="289.44" y2="515.822" gradientUnits="userSpaceOnUse">
<stop stop-color="#FF7566"/>
<stop offset="1" stop-color="#FE4C39"/>
</linearGradient>
<linearGradient id="paint13_linear" x1="289.44" y1="430.86" x2="289.44" y2="462.625" gradientUnits="userSpaceOnUse">
<stop stop-color="#FF7566"/>
<stop offset="1" stop-color="#FE4C39"/>
</linearGradient>
<linearGradient id="paint14_linear" x1="236.961" y1="430.86" x2="236.961" y2="462.625" gradientUnits="userSpaceOnUse">
<stop stop-color="#FF7566"/>
<stop offset="1" stop-color="#FE4C39"/>
</linearGradient>
<linearGradient id="paint15_linear" x1="236.961" y1="484.059" x2="236.961" y2="515.822" gradientUnits="userSpaceOnUse">
<stop stop-color="#FF7566"/>
<stop offset="1" stop-color="#FE4C39"/>
</linearGradient>
<linearGradient id="paint16_linear" x1="283.962" y1="315.683" x2="283.962" y2="378.535" gradientUnits="userSpaceOnUse">
<stop stop-color="#FF7566"/>
<stop offset="1" stop-color="#FE4C39"/>
</linearGradient>
<linearGradient id="paint17_linear" x1="604.962" y1="210.578" x2="604.962" y2="262.872" gradientUnits="userSpaceOnUse">
<stop stop-color="#FF7566"/>
<stop offset="1" stop-color="#FE4C39"/>
</linearGradient>
<linearGradient id="paint18_linear" x1="551.966" y1="263.389" x2="551.966" y2="315.684" gradientUnits="userSpaceOnUse">
<stop stop-color="#FF7566"/>
<stop offset="1" stop-color="#FE4C39"/>
</linearGradient>
<linearGradient id="paint19_linear" x1="52.3792" y1="525.895" x2="52.3792" y2="631" gradientUnits="userSpaceOnUse">
<stop stop-color="#FF7566"/>
<stop offset="1" stop-color="#FE4C39"/>
</linearGradient>
<linearGradient id="paint20_linear" x1="605.491" y1="0" x2="605.491" y2="52.5527" gradientUnits="userSpaceOnUse">
<stop stop-color="#FF7566"/>
<stop offset="1" stop-color="#FE4C39"/>
</linearGradient>
<clipPath id="clip0">
<rect width="596" height="631" fill="white"/>
</clipPath>
</defs>
</svg>
